<?xml version="1.0" encoding="utf-8"?>
<!-- Generator: Adobe Illustrator 26.4.1, SVG Export Plug-In . SVG Version: 6.00 Build 0)  -->
<svg version="1.0" id="katman_1" xmlns="http://www.w3.org/2000/svg" xmlns:xlink="http://www.w3.org/1999/xlink" x="0px" y="0px"
	 viewBox="0 0 841.89 595.28" style="enable-background:new 0 0 841.89 595.28;" xml:space="preserve">
<style type="text/css">
	.st0{fill:#2D1E14;}
	.st1{fill:#FFFFFF;}
	.st2{fill:#C69C6C;}
	.st3{clip-path:url(#SVGID_00000144327096018853374830000012853213384706685603_);fill:#1A1D24;}
	.st4{fill:#1A1D24;}
	.st5{fill:#231F20;}
	.st6{fill:#FCE5CB;}
	.st7{fill:#CAAC78;}
</style>
<path class="st0" d="M655,297.36c0,129.47-104.95,234.41-234.41,234.41c-129.46,0-234.41-104.95-234.41-234.41
	c0-129.46,104.95-234.41,234.41-234.41C550.05,62.95,655,167.9,655,297.36"/>
<polygon class="st1" points="595.9,173.49 589.66,164.42 609.26,170.96 615.51,180.03 "/>
<polygon class="st1" points="582.98,157 575.88,148.58 596.04,153.19 603.13,161.6 "/>
<polygon class="st1" points="568.54,141.87 560.67,134.18 581.17,136.81 589.05,144.51 "/>
<polygon class="st1" points="552.71,128.2 544.12,121.31 564.78,121.94 573.37,128.84 "/>
<polygon class="st1" points="535.59,116.11 526.37,110.09 547,108.71 556.21,114.73 "/>
<polygon class="st1" points="517.29,105.71 507.53,100.61 527.92,97.23 537.69,102.32 "/>
<polygon class="st1" points="497.94,97.11 487.73,93.01 507.68,87.62 517.9,91.72 "/>
<polygon class="st1" points="477.66,90.42 467.08,87.38 486.4,80.01 496.97,83.06 "/>
<polygon class="st1" points="456.54,85.76 445.71,83.8 464.18,74.5 475.01,76.48 "/>
<polygon class="st1" points="434.72,83.23 423.74,82.38 441.16,71.26 452.14,72.11 "/>
<polygon class="st1" points="412.31,82.94 401.3,83.23 417.49,70.36 428.5,70.09 "/>
<polygon class="st1" points="390.21,84.93 379.29,86.34 394.07,71.9 404.99,70.48 "/>
<polygon class="st1" points="368.82,89.09 358.1,91.61 371.34,75.73 382.05,73.22 "/>
<polygon class="st1" points="348.26,95.31 337.85,98.9 349.41,81.76 359.82,78.18 "/>
<polygon class="st1" points="328.63,103.48 318.63,108.07 328.43,89.88 338.43,85.28 "/>
<polygon class="st1" points="310.05,113.48 300.55,119.04 308.52,99.95 318.01,94.4 "/>
<polygon class="st1" points="292.62,125.18 283.71,131.65 289.78,111.88 298.69,105.42 "/>
<polygon class="st1" points="276.46,138.49 268.22,145.79 272.34,125.53 280.58,118.24 "/>
<polygon class="st1" points="261.68,153.29 254.19,161.36 256.33,140.79 263.82,132.73 "/>
<polygon class="st1" points="265.44,445.37 272.93,453.43 252.58,449.8 245.08,441.74 "/>
<polygon class="st1" points="280.58,459.78 288.83,467.08 268.22,465.44 259.98,458.14 "/>
<polygon class="st1" points="297.08,472.67 305.99,479.14 285.32,479.5 276.41,473.04 "/>
<polygon class="st1" points="314.8,483.93 324.3,489.5 303.76,491.88 294.27,486.31 "/>
<polygon class="st1" points="333.63,493.45 343.63,498.05 323.43,502.43 313.43,497.84 "/>
<polygon class="st1" points="353.46,501.1 363.87,504.68 344.21,511.07 333.8,507.49 "/>
<polygon class="st1" points="374.18,506.79 384.89,509.3 365.98,517.64 355.26,515.13 "/>
<polygon class="st1" points="395.66,510.4 406.58,511.81 388.61,522.02 377.7,520.62 "/>
<polygon class="st1" points="417.81,511.83 428.82,512.11 411.99,524.11 400.98,523.83 "/>
<polygon class="st1" points="440.2,510.96 451.18,510.12 435.67,523.79 424.7,524.64 "/>
<polygon class="st1" points="461.96,507.87 472.8,505.92 458.77,521.1 447.94,523.06 "/>
<polygon class="st1" points="482.95,502.67 493.53,499.61 481.11,516.14 470.53,519.2 "/>
<polygon class="st1" points="503.05,495.46 513.27,491.36 502.57,509.05 492.36,513.15 "/>
<polygon class="st1" points="522.18,486.37 531.94,481.28 523.04,499.94 513.28,505.03 "/>
<polygon class="st1" points="540.19,475.5 549.41,469.48 542.38,488.92 533.17,494.95 "/>
<polygon class="st1" points="557,462.98 565.58,456.09 560.49,476.12 551.9,483.01 "/>
<polygon class="st1" points="572.48,448.91 580.36,441.22 577.23,461.65 569.35,469.34 "/>
<polygon class="st1" points="586.53,433.41 593.63,425 592.49,445.64 585.38,454.05 "/>
<path class="st1" d="M622.54,297.36c0,111.53-90.42,201.95-201.95,201.95c-111.53,0-201.95-90.42-201.95-201.95
	c0-111.53,90.42-201.94,201.95-201.94C532.12,95.42,622.54,185.83,622.54,297.36"/>
<path class="st2" d="M416.56,495.5c-1.29-0.02-2.31-1.09-2.29-2.39c0.02-1.28,1.1-2.31,2.38-2.29c1.28,0.03,2.31,1.1,2.29,2.39
	c-0.02,1.28-1.05,2.29-2.34,2.29H416.56z M430.68,492.96c-0.1-1.29,0.89-2.39,2.17-2.48c1.28-0.08,2.41,0.91,2.48,2.19
	c0.09,1.28-0.89,2.38-2.17,2.47h-0.14C431.78,495.14,430.75,494.19,430.68,492.96 M400,494.47L400,494.47
	c-1.28-0.11-2.22-1.26-2.08-2.54c0.14-1.28,1.29-2.22,2.57-2.11v0.03c1.29,0.11,2.19,1.26,2.08,2.54c-0.14,1.22-1.14,2.1-2.33,2.1
	C400.17,494.49,400.09,494.49,400,494.47 M447,491.46c-0.18-1.28,0.7-2.48,1.96-2.66c1.29-0.19,2.48,0.7,2.67,1.96
	c0.19,1.29-0.7,2.47-1.99,2.66c-0.12,0.03-0.23,0.03-0.33,0.03C448.17,493.45,447.17,492.61,447,491.46 M383.58,492.09
	L383.58,492.09c-1.26-0.23-2.1-1.46-1.86-2.73c0.24-1.26,1.47-2.11,2.73-1.87c1.26,0.25,2.1,1.47,1.87,2.74
	c-0.21,1.12-1.19,1.91-2.29,1.91C383.89,492.13,383.73,492.12,383.58,492.09 M463.14,488.59c-0.28-1.26,0.49-2.52,1.75-2.8
	c1.26-0.3,2.5,0.47,2.8,1.73c0.3,1.26-0.49,2.52-1.73,2.8c-0.19,0.05-0.38,0.07-0.54,0.07
	C464.35,490.38,463.39,489.67,463.14,488.59 M367.43,488.33c-1.24-0.35-1.98-1.63-1.64-2.87c0.35-1.26,1.64-1.99,2.88-1.63
	c1.23,0.35,1.98,1.63,1.63,2.87c-0.28,1.03-1.24,1.7-2.24,1.7C367.85,488.4,367.64,488.38,367.43,488.33 M478.99,484.36
	c-0.39-1.24,0.28-2.54,1.5-2.94c1.24-0.4,2.54,0.28,2.94,1.49c0.4,1.24-0.28,2.55-1.5,2.94c-0.23,0.07-0.48,0.12-0.72,0.12
	C480.23,485.97,479.32,485.34,478.99,484.36 M351.64,483.22L351.64,483.22c-1.21-0.44-1.84-1.8-1.38-3.01
	c0.45-1.22,1.78-1.82,2.99-1.38c1.22,0.45,1.82,1.8,1.38,3.02c-0.35,0.93-1.24,1.51-2.2,1.51
	C352.18,483.36,351.9,483.31,351.64,483.22 M494.43,478.83c-0.51-1.19,0.04-2.56,1.24-3.06c1.19-0.51,2.54,0.05,3.05,1.24
	c0.49,1.19-0.07,2.57-1.24,3.06c-0.3,0.14-0.6,0.18-0.91,0.18C495.67,480.25,494.8,479.72,494.43,478.83 M336.32,476.77
	L336.32,476.77c-1.17-0.53-1.66-1.94-1.12-3.1c0.56-1.17,1.93-1.66,3.1-1.12v0.02c1.17,0.54,1.69,1.94,1.12,3.11
	c-0.4,0.84-1.24,1.33-2.12,1.33C336.98,477.01,336.65,476.94,336.32,476.77 M509.32,472.01c-0.61-1.14-0.16-2.55,0.98-3.15
	c1.14-0.61,2.55-0.16,3.15,0.97c0.61,1.15,0.17,2.54-0.98,3.16c-0.35,0.19-0.72,0.28-1.07,0.28
	C510.56,473.27,509.74,472.81,509.32,472.01 M321.62,469.09L321.62,469.09c-1.12-0.65-1.5-2.08-0.87-3.2
	c0.66-1.12,2.08-1.5,3.2-0.84c1.12,0.62,1.49,2.07,0.86,3.16c-0.45,0.75-1.24,1.17-2.03,1.17
	C322.38,469.4,321.99,469.3,321.62,469.09 M523.61,463.98c-0.7-1.09-0.38-2.54,0.7-3.24c1.1-0.68,2.55-0.38,3.24,0.72
	c0.68,1.11,0.37,2.52-0.72,3.22c-0.4,0.27-0.82,0.39-1.26,0.39C524.8,465.06,524.06,464.67,523.61,463.98 M307.6,460.19
	c-1.07-0.74-1.33-2.19-0.58-3.24c0.72-1.07,2.19-1.33,3.24-0.58c1.05,0.72,1.31,2.17,0.59,3.24c-0.47,0.65-1.2,1-1.92,1
	C308.47,460.61,308,460.48,307.6,460.19 M537.18,454.75c-0.8-1.03-0.58-2.5,0.44-3.26c1.02-0.8,2.5-0.59,3.27,0.45
	c0.77,1.02,0.58,2.5-0.44,3.26c-0.42,0.33-0.91,0.47-1.42,0.47C538.33,455.67,537.62,455.36,537.18,454.75 M294.37,450.15
	L294.37,450.15c-0.98-0.81-1.12-2.28-0.3-3.29c0.81-0.98,2.29-1.13,3.29-0.3c0.98,0.81,1.12,2.28,0.3,3.29
	c-0.47,0.56-1.12,0.84-1.8,0.84C295.35,450.69,294.81,450.53,294.37,450.15 M549.93,444.44c-0.87-0.96-0.79-2.43,0.16-3.29
	c0.96-0.87,2.43-0.79,3.29,0.16c0.86,0.96,0.8,2.45-0.16,3.31c-0.45,0.4-1.01,0.59-1.57,0.59
	C551.02,445.21,550.39,444.95,549.93,444.44 M282.04,439.07c-0.91-0.91-0.93-2.38-0.03-3.32c0.89-0.91,2.36-0.93,3.3-0.03
	c0.91,0.92,0.93,2.38,0.05,3.29c-0.47,0.47-1.08,0.7-1.68,0.7C283.09,439.72,282.51,439.5,282.04,439.07 M561.76,433.11
	c-0.93-0.89-0.98-2.36-0.09-3.32c0.89-0.93,2.36-0.98,3.29-0.09c0.96,0.89,1.01,2.36,0.12,3.29c-0.47,0.49-1.08,0.75-1.7,0.75
	C562.79,433.74,562.23,433.53,561.76,433.11 M270.67,426.97c-0.84-0.98-0.75-2.44,0.23-3.28c0.98-0.85,2.46-0.73,3.32,0.23h-0.02
	c0.84,0.97,0.75,2.44-0.23,3.29c-0.45,0.4-0.98,0.58-1.52,0.58C271.79,427.79,271.13,427.5,270.67,426.97 M572.64,420.83
	c-1-0.81-1.19-2.29-0.37-3.29c0.79-1.01,2.27-1.19,3.27-0.38c1,0.8,1.19,2.27,0.38,3.27c-0.45,0.58-1.15,0.89-1.83,0.89
	C573.58,421.32,573.07,421.16,572.64,420.83 M260.35,413.99c-0.77-1.05-0.54-2.5,0.51-3.27c1.03-0.74,2.5-0.54,3.25,0.51
	c0.77,1.05,0.53,2.5-0.5,3.26c-0.42,0.31-0.91,0.45-1.38,0.45C261.52,414.94,260.82,414.61,260.35,413.99 M582.45,407.66
	c-1.07-0.7-1.35-2.14-0.65-3.22c0.72-1.07,2.17-1.37,3.24-0.65c1.08,0.72,1.35,2.17,0.65,3.24c-0.47,0.65-1.19,1.03-1.96,1.03
	C583.29,408.06,582.85,407.94,582.45,407.66 M251.15,400.19c-0.68-1.09-0.33-2.54,0.77-3.22c1.1-0.66,2.55-0.31,3.22,0.79
	c0.66,1.1,0.3,2.55-0.8,3.2c-0.37,0.23-0.79,0.35-1.21,0.35C252.36,401.31,251.59,400.91,251.15,400.19 M591.11,393.75
	c-1.12-0.64-1.54-2.03-0.91-3.18c0.63-1.12,2.03-1.54,3.18-0.91c1.12,0.63,1.54,2.03,0.91,3.18c-0.42,0.77-1.21,1.2-2.03,1.2
	C591.86,394.03,591.49,393.92,591.11,393.75 M243.11,385.67c-0.56-1.17-0.09-2.57,1.05-3.13c1.17-0.58,2.57-0.12,3.13,1.05
	c0.58,1.14,0.12,2.55-1.05,3.13c-0.33,0.16-0.68,0.23-1.03,0.23C244.35,386.94,243.54,386.48,243.11,385.67 M598.61,379.15
	c-1.19-0.54-1.7-1.92-1.19-3.08c0.54-1.19,1.92-1.73,3.08-1.19c1.19,0.51,1.7,1.92,1.19,3.08c-0.4,0.86-1.24,1.38-2.15,1.38
	C599.24,379.34,598.92,379.29,598.61,379.15 M236.34,370.51c-0.46-1.19,0.12-2.54,1.33-3.03c1.19-0.47,2.55,0.11,3.01,1.32
	c0.49,1.2-0.12,2.55-1.3,3.02c-0.28,0.11-0.56,0.16-0.87,0.16C237.6,371.98,236.72,371.44,236.34,370.51 M604.85,363.98
	c-1.24-0.45-1.87-1.79-1.45-2.99c0.42-1.21,1.75-1.87,2.96-1.43c1.21,0.43,1.87,1.76,1.45,2.98c-0.35,0.95-1.24,1.56-2.22,1.56
	C605.33,364.09,605.08,364.04,604.85,363.98 M230.88,354.84c-0.37-1.23,0.33-2.52,1.57-2.89c1.24-0.38,2.52,0.32,2.89,1.56h0.02
	c0.37,1.22-0.32,2.53-1.56,2.9c-0.23,0.07-0.47,0.11-0.68,0.11C232.12,356.52,231.18,355.87,230.88,354.84 M609.75,348.31
	c-1.23-0.31-2.01-1.6-1.68-2.83c0.33-1.26,1.59-2.02,2.85-1.68c1.24,0.31,2.01,1.59,1.68,2.83c-0.28,1.08-1.22,1.78-2.27,1.78
	C610.15,348.4,609.96,348.37,609.75,348.31 M226.74,338.78c-0.25-1.26,0.54-2.5,1.8-2.78c1.26-0.25,2.5,0.56,2.78,1.83
	c0.26,1.26-0.54,2.5-1.8,2.76c-0.16,0.04-0.32,0.04-0.49,0.04C227.96,340.62,226.98,339.88,226.74,338.78 M613.34,332.31
	c-1.28-0.21-2.15-1.42-1.94-2.68c0.24-1.26,1.43-2.13,2.71-1.92c1.26,0.21,2.13,1.43,1.91,2.68c-0.19,1.14-1.19,1.96-2.31,1.96
	C613.6,332.36,613.46,332.33,613.34,332.31 M223.97,322.44v-0.02c-0.14-1.26,0.75-2.43,2.03-2.59c1.28-0.16,2.45,0.74,2.61,2.03
	v-0.03c0.16,1.28-0.75,2.46-2.03,2.62c-0.09,0.02-0.19,0.02-0.28,0.02C225.13,324.46,224.13,323.6,223.97,322.44 M615.56,316.08
	c-1.29-0.12-2.24-1.24-2.12-2.54v0.02c0.09-1.3,1.22-2.24,2.52-2.15c1.26,0.12,2.24,1.24,2.12,2.52c-0.09,1.22-1.12,2.15-2.33,2.15
	H615.56z M222.59,305.9c-0.05-1.3,0.95-2.38,2.24-2.45c1.28-0.05,2.38,0.96,2.43,2.24c0.04,1.28-0.93,2.38-2.24,2.43h-0.09
	C223.69,308.12,222.64,307.14,222.59,305.9 M614.09,297.36L614.09,297.36c0-0.07,0.02-0.14,0.02-0.18c-0.02-0.1-0.02-0.16-0.02-0.26
	c0-1.29,1.05-2.34,2.34-2.34c1.29-0.03,2.33,1.03,2.33,2.31v0.02v0.24v0.21c0,1.28-1.03,2.34-2.33,2.34
	C615.14,299.69,614.09,298.64,614.09,297.36 M224.81,291.73c-1.28-0.05-2.29-1.15-2.24-2.43c0.04-1.28,1.15-2.29,2.43-2.24
	c1.29,0.05,2.29,1.15,2.24,2.43c-0.05,1.27-1.07,2.25-2.34,2.25H224.81z M613.39,280.73c-0.12-1.29,0.84-2.43,2.13-2.54
	c1.28-0.1,2.43,0.86,2.52,2.15c0.12,1.28-0.85,2.4-2.12,2.52h-0.21C614.51,282.86,613.48,281.95,613.39,280.73 M225.95,275.36
	c-1.28-0.16-2.19-1.31-2.03-2.59c0.16-1.29,1.33-2.19,2.61-2.03c1.26,0.16,2.17,1.33,2.01,2.59h0.02c-0.16,1.2-1.17,2.06-2.31,2.06
	C226.16,275.38,226.04,275.38,225.95,275.36 M611.33,264.64c-0.21-1.26,0.66-2.47,1.92-2.68c1.28-0.21,2.48,0.64,2.71,1.92
	c0.2,1.26-0.65,2.47-1.92,2.69c-0.14,0.02-0.28,0.02-0.4,0.02C612.53,266.58,611.55,265.79,611.33,264.64 M228.45,259.16
	c-1.26-0.25-2.06-1.5-1.8-2.76c0.26-1.26,1.49-2.08,2.76-1.79c1.26,0.25,2.07,1.49,1.82,2.75c-0.24,1.1-1.22,1.85-2.29,1.85
	C228.78,259.2,228.61,259.2,228.45,259.16 M607.95,248.81c-0.32-1.26,0.42-2.52,1.68-2.85c1.24-0.32,2.52,0.42,2.85,1.68
	c0.32,1.24-0.45,2.53-1.68,2.85c-0.19,0.05-0.4,0.07-0.59,0.07C609.17,250.56,608.23,249.87,607.95,248.81 M232.31,243.23
	c-1.24-0.38-1.94-1.69-1.57-2.92c0.37-1.24,1.68-1.94,2.92-1.56c1.24,0.37,1.94,1.68,1.57,2.92c-0.31,1-1.24,1.65-2.24,1.65
	C232.77,243.32,232.54,243.3,232.31,243.23 M603.25,233.31h-0.02c-0.42-1.22,0.23-2.54,1.45-2.96c1.22-0.44,2.55,0.21,2.97,1.42
	c0.42,1.22-0.21,2.55-1.43,2.96c-0.25,0.1-0.51,0.15-0.77,0.15C604.49,234.87,603.59,234.27,603.25,233.31 M237.51,227.65
	c-1.21-0.47-1.8-1.82-1.33-3.03c0.49-1.2,1.82-1.78,3.03-1.31c1.19,0.47,1.8,1.82,1.31,3.03c-0.35,0.92-1.24,1.47-2.17,1.47
	C238.07,227.82,237.79,227.77,237.51,227.65 M597.26,218.27c-0.54-1.17,0-2.57,1.17-3.08c1.17-0.54,2.56,0,3.08,1.17
	c0.53,1.16,0,2.56-1.17,3.08c-0.3,0.14-0.63,0.21-0.95,0.21C598.49,219.65,597.63,219.14,597.26,218.27 M243.98,212.57
	c-1.14-0.56-1.63-1.96-1.05-3.13c0.56-1.14,1.96-1.61,3.13-1.05c1.14,0.58,1.63,1.98,1.05,3.13c-0.4,0.81-1.24,1.3-2.1,1.3
	C244.65,212.83,244.3,212.73,243.98,212.57 M590.02,203.8c-0.63-1.14-0.23-2.57,0.91-3.18c1.12-0.63,2.55-0.24,3.16,0.91
	c0.63,1.12,0.23,2.55-0.91,3.17c-0.35,0.19-0.73,0.28-1.12,0.28C591.23,204.98,590.44,204.57,590.02,203.8 M251.71,198.09
	c-1.1-0.65-1.45-2.1-0.79-3.19c0.68-1.1,2.1-1.45,3.22-0.79c1.1,0.67,1.45,2.1,0.77,3.22c-0.44,0.73-1.21,1.12-1.99,1.12
	C252.5,198.45,252.08,198.33,251.71,198.09 M581.57,189.95h0.02c-0.73-1.08-0.44-2.52,0.63-3.25c1.07-0.7,2.52-0.42,3.24,0.65
	c0.7,1.07,0.42,2.52-0.65,3.25c-0.39,0.25-0.84,0.4-1.28,0.4C582.76,191,582.03,190.62,581.57,189.95 M260.61,184.32
	c-1.03-0.75-1.26-2.19-0.52-3.24c0.77-1.05,2.22-1.28,3.27-0.51c1.05,0.74,1.29,2.22,0.51,3.24c-0.44,0.63-1.17,0.98-1.89,0.98
	C261.52,184.79,261.02,184.63,260.61,184.32 M572.02,176.87c-0.8-1.01-0.63-2.48,0.37-3.29c1-0.8,2.47-0.64,3.26,0.37h0.03
	c0.8,1,0.63,2.46-0.37,3.29c-0.45,0.33-0.96,0.52-1.47,0.52C573.16,177.76,572.49,177.46,572.02,176.87 M270.64,171.34
	c-0.98-0.84-1.07-2.31-0.26-3.27v-0.02c0.86-0.98,2.34-1.07,3.31-0.24c0.96,0.84,1.08,2.31,0.24,3.29
	c-0.47,0.54-1.12,0.82-1.77,0.82C271.62,171.92,271.09,171.74,270.64,171.34 M561.39,164.64L561.39,164.64
	c-0.86-0.94-0.84-2.43,0.09-3.32c0.96-0.89,2.43-0.85,3.32,0.1v0.02c0.89,0.9,0.84,2.4-0.09,3.29c-0.47,0.42-1.03,0.62-1.61,0.62
	C562.49,165.35,561.86,165.1,561.39,164.64 M281.71,159.25c-0.89-0.91-0.89-2.38,0.05-3.29c0.91-0.91,2.38-0.89,3.29,0.02
	c0.91,0.91,0.89,2.4-0.02,3.32c-0.47,0.45-1.05,0.65-1.63,0.65C282.78,159.94,282.18,159.71,281.71,159.25 M549.81,153.31
	c-0.98-0.86-1.05-2.34-0.19-3.29c0.87-0.96,2.34-1.05,3.29-0.19c0.96,0.87,1.05,2.34,0.19,3.29c-0.47,0.52-1.1,0.79-1.75,0.79
	C550.79,153.91,550.25,153.71,549.81,153.31 M293.76,148.11c-0.82-0.98-0.7-2.45,0.31-3.3c0.98-0.81,2.45-0.67,3.29,0.3
	c0.82,1.01,0.67,2.48-0.31,3.3c-0.44,0.37-0.98,0.54-1.49,0.54C294.88,148.95,294.21,148.67,293.76,148.11 M537.29,142.99
	c-1.03-0.76-1.21-2.24-0.44-3.26c0.77-1.03,2.24-1.24,3.27-0.45c1.03,0.77,1.23,2.24,0.44,3.26c-0.44,0.6-1.14,0.91-1.87,0.91
	C538.2,143.46,537.71,143.32,537.29,142.99 M306.67,138.01c-0.75-1.05-0.47-2.52,0.58-3.25c1.05-0.74,2.52-0.49,3.25,0.57
	c0.74,1.08,0.49,2.52-0.56,3.27c-0.42,0.28-0.89,0.42-1.36,0.42C307.86,139.03,307.14,138.67,306.67,138.01 M523.99,133.74
	c-1.09-0.67-1.42-2.12-0.73-3.22c0.68-1.07,2.13-1.39,3.22-0.7c1.07,0.67,1.4,2.12,0.73,3.23c-0.45,0.69-1.22,1.07-1.99,1.07
	C524.8,134.12,524.36,134.01,523.99,133.74 M320.4,129.02c-0.65-1.09-0.28-2.54,0.84-3.17c1.12-0.65,2.54-0.28,3.2,0.84
	c0.63,1.12,0.25,2.55-0.86,3.2v-0.02c-0.35,0.24-0.77,0.33-1.17,0.33C321.62,130.2,320.82,129.77,320.4,129.02 M509.93,125.67
	c-1.15-0.61-1.59-2.01-0.98-3.15c0.58-1.14,2.01-1.59,3.16-0.97c1.14,0.58,1.58,2,0.98,3.14c-0.42,0.8-1.24,1.25-2.08,1.25
	C510.65,125.93,510.28,125.85,509.93,125.67 M334.81,121.23c-0.54-1.17-0.04-2.55,1.12-3.1c1.17-0.56,2.54-0.05,3.11,1.12
	c0.56,1.16,0.05,2.54-1.12,3.1c-0.33,0.15-0.65,0.22-0.98,0.22C336.05,122.57,335.21,122.07,334.81,121.23 M495.26,118.78
	c-1.19-0.49-1.74-1.87-1.26-3.06c0.49-1.16,1.86-1.76,3.06-1.24c1.19,0.49,1.75,1.87,1.26,3.06c-0.4,0.89-1.26,1.43-2.17,1.43
	C495.85,118.97,495.55,118.92,495.26,118.78 M349.84,114.67c-0.46-1.19,0.14-2.55,1.36-3.01c1.21-0.45,2.54,0.16,3.01,1.38
	c0.44,1.22-0.16,2.54-1.38,3.01c-0.25,0.09-0.53,0.14-0.81,0.14C351.06,116.18,350.17,115.6,349.84,114.67 M480.07,113.16
	c-1.24-0.4-1.92-1.71-1.52-2.94c0.4-1.22,1.7-1.89,2.94-1.49c1.22,0.39,1.89,1.7,1.49,2.94c-0.3,0.98-1.24,1.61-2.22,1.61
	C480.53,113.27,480.3,113.24,480.07,113.16 M365.35,109.39c-0.35-1.23,0.4-2.52,1.63-2.87c1.24-0.34,2.52,0.38,2.87,1.61
	c0.35,1.24-0.37,2.55-1.61,2.9c-0.21,0.05-0.42,0.07-0.63,0.07C366.59,111.09,365.65,110.42,365.35,109.39 M464.44,108.83
	c-1.26-0.28-2.06-1.54-1.75-2.8c0.29-1.24,1.54-2.03,2.8-1.75c1.26,0.3,2.03,1.56,1.75,2.8c-0.26,1.1-1.22,1.82-2.29,1.82
	C464.8,108.9,464.61,108.88,464.44,108.83 M381.27,105.45c-0.23-1.27,0.59-2.51,1.85-2.74c1.28-0.24,2.5,0.58,2.75,1.86
	c0.23,1.26-0.61,2.48-1.87,2.74c-0.13,0.02-0.3,0.02-0.44,0.02C382.46,107.34,381.48,106.57,381.27,105.45 M448.52,105.84
	c-1.28-0.18-2.17-1.35-1.98-2.64c0.18-1.29,1.38-2.15,2.64-1.98c1.28,0.18,2.17,1.37,1.98,2.66c-0.16,1.14-1.17,1.99-2.31,1.99
	C448.76,105.87,448.64,105.87,448.52,105.84 M397.45,102.86c-0.12-1.29,0.79-2.43,2.08-2.57c1.28-0.15,2.43,0.79,2.57,2.07
	c0.14,1.29-0.79,2.43-2.08,2.57h-0.25C398.6,104.93,397.59,104.04,397.45,102.86 M432.41,104.2c-1.29-0.07-2.27-1.19-2.2-2.47
	c0.07-1.29,1.17-2.27,2.47-2.19c1.29,0.07,2.27,1.19,2.17,2.47c-0.07,1.24-1.09,2.19-2.31,2.19H432.41z M413.82,101.61
	c-0.05-1.28,0.98-2.35,2.26-2.38c1.31-0.02,2.36,0.98,2.41,2.28c0.02,1.29-1.01,2.36-2.29,2.38h-0.05
	C414.88,103.9,413.84,102.88,413.82,101.61"/>
<g>
	<defs>
		<path id="SVGID_1_" d="M250.14,237.29h340.9c-24.77-70.26-91.71-120.64-170.45-120.64C341.85,116.65,274.9,167.03,250.14,237.29"
			/>
	</defs>
	<clipPath id="SVGID_00000133493025859037615170000017239532134784171654_">
		<use xlink:href="#SVGID_1_"  style="overflow:visible;"/>
	</clipPath>
	
		<rect x="268.5" y="116.65" style="clip-path:url(#SVGID_00000133493025859037615170000017239532134784171654_);fill:#1A1D24;" width="3.12" height="120.64"/>
	
		<rect x="288.42" y="116.65" style="clip-path:url(#SVGID_00000133493025859037615170000017239532134784171654_);fill:#1A1D24;" width="3.11" height="120.64"/>
	
		<rect x="308.33" y="116.65" style="clip-path:url(#SVGID_00000133493025859037615170000017239532134784171654_);fill:#1A1D24;" width="3.11" height="120.64"/>
	
		<rect x="328.25" y="116.65" style="clip-path:url(#SVGID_00000133493025859037615170000017239532134784171654_);fill:#1A1D24;" width="3.11" height="120.64"/>
	
		<rect x="348.16" y="116.65" style="clip-path:url(#SVGID_00000133493025859037615170000017239532134784171654_);fill:#1A1D24;" width="3.12" height="120.64"/>
	
		<rect x="368.08" y="116.65" style="clip-path:url(#SVGID_00000133493025859037615170000017239532134784171654_);fill:#1A1D24;" width="3.11" height="120.64"/>
	
		<rect x="387.99" y="116.65" style="clip-path:url(#SVGID_00000133493025859037615170000017239532134784171654_);fill:#1A1D24;" width="3.12" height="120.64"/>
	
		<rect x="407.91" y="116.65" style="clip-path:url(#SVGID_00000133493025859037615170000017239532134784171654_);fill:#1A1D24;" width="3.12" height="120.64"/>
	
		<rect x="427.83" y="116.65" style="clip-path:url(#SVGID_00000133493025859037615170000017239532134784171654_);fill:#1A1D24;" width="3.11" height="120.64"/>
	
		<rect x="447.74" y="116.65" style="clip-path:url(#SVGID_00000133493025859037615170000017239532134784171654_);fill:#1A1D24;" width="3.11" height="120.64"/>
	
		<rect x="467.66" y="116.65" style="clip-path:url(#SVGID_00000133493025859037615170000017239532134784171654_);fill:#1A1D24;" width="3.11" height="120.64"/>
	
		<rect x="487.57" y="116.65" style="clip-path:url(#SVGID_00000133493025859037615170000017239532134784171654_);fill:#1A1D24;" width="3.11" height="120.64"/>
	
		<rect x="507.49" y="116.65" style="clip-path:url(#SVGID_00000133493025859037615170000017239532134784171654_);fill:#1A1D24;" width="3.12" height="120.64"/>
	
		<rect x="527.41" y="116.65" style="clip-path:url(#SVGID_00000133493025859037615170000017239532134784171654_);fill:#1A1D24;" width="3.11" height="120.64"/>
	
		<rect x="547.32" y="116.65" style="clip-path:url(#SVGID_00000133493025859037615170000017239532134784171654_);fill:#1A1D24;" width="3.11" height="120.64"/>
	
		<rect x="567.24" y="116.65" style="clip-path:url(#SVGID_00000133493025859037615170000017239532134784171654_);fill:#1A1D24;" width="3.11" height="120.64"/>
</g>
<rect x="250.14" y="237.29" class="st4" width="340.9" height="7.41"/>
<rect x="250.14" y="350.03" class="st4" width="340.9" height="7.4"/>
<path class="st4" d="M598.65,297.06c0,5.32-4.32,9.63-9.63,9.63c-5.31,0-9.62-4.31-9.62-9.63c0-5.31,4.31-9.62,9.62-9.62
	C594.33,287.44,598.65,291.75,598.65,297.06"/>
<path class="st4" d="M261.78,297.06c0,5.32-4.31,9.63-9.63,9.63c-5.31,0-9.62-4.31-9.62-9.63c0-5.31,4.31-9.62,9.62-9.62
	C257.47,287.44,261.78,291.75,261.78,297.06"/>
<polygon class="st2" points="465.91,194.57 419.42,214.75 372.92,194.57 372.92,153.18 465.91,153.18 "/>
<g>
	<path class="st1" d="M386.42,168.08h-8.77v-3.16H399v3.16h-8.81v25.67h-3.77V168.08z"/>
	<path class="st1" d="M411.03,164.91v12.07h13.95v-12.07h3.77v28.84h-3.77v-13.52h-13.95v13.52h-3.72v-28.84H411.03z"/>
	<path class="st1" d="M455.28,180.23h-11.21v10.4h12.5v3.12h-16.22v-28.84h15.57v3.12h-11.85v9.12h11.21V180.23z"/>
</g>
<g>
	<path class="st0" d="M317.06,415.89h2.61v1.71h-2.61v3.53h3.27v1.72h-5.16V410.8h5.16v1.72h-3.27V415.89z"/>
	<path class="st0" d="M328.7,410.67c1.86,0,2.79,1.01,2.79,3.02v0.65h-1.79v-0.76c0-0.79-0.31-1.18-0.95-1.18s-0.95,0.4-0.95,1.18
		c0,0.55,0.19,1.06,0.58,1.56c0.15,0.19,0.35,0.4,0.6,0.64l0.5,0.47c0.07,0.06,0.12,0.12,0.18,0.16c0.28,0.26,0.5,0.48,0.67,0.67
		c0.24,0.27,0.44,0.52,0.6,0.78c0.39,0.63,0.58,1.33,0.58,2.1c0,2.02-0.94,3.03-2.83,3.03c-1.88,0-2.82-1.01-2.82-3.03v-1.16h1.79
		v1.28c0,0.79,0.33,1.18,0.98,1.18c0.65,0,0.97-0.4,0.97-1.18c0-0.54-0.19-1.05-0.57-1.55c-0.15-0.19-0.35-0.41-0.6-0.65l-0.68-0.63
		c-0.28-0.26-0.51-0.49-0.68-0.67c-0.24-0.26-0.43-0.52-0.59-0.77c-0.38-0.63-0.58-1.33-0.58-2.11
		C325.91,411.68,326.84,410.67,328.7,410.67z"/>
	<path class="st0" d="M336.71,410.8h5.84v1.72h-1.97v10.33h-1.89v-10.33h-1.98V410.8z"/>
	<path class="st0" d="M493.88,412.32c0.66,0,1.15-0.15,1.48-0.46c0.22-0.2,0.42-0.56,0.61-1.07h1.27v12.05h-1.89v-9.19h-1.46V412.32
		z"/>
	<path class="st0" d="M509.73,419.86c0,2.08-0.96,3.13-2.89,3.13c-1.88,0-2.82-1.01-2.82-3.03v-0.31h1.79v0.43
		c0,0.8,0.33,1.2,0.98,1.2c0.7,0,1.05-0.5,1.05-1.49v-2.2c-0.34,0.72-0.93,1.07-1.76,1.07c-1.4,0-2.1-0.92-2.1-2.76v-2.21
		c0-2.01,0.95-3.02,2.87-3.02c1.92,0,2.87,1.01,2.87,3.02V419.86z M507.84,415.74v-2.17c0-0.78-0.33-1.17-0.98-1.17
		c-0.66,0-0.98,0.39-0.98,1.17v2.17c0,0.79,0.32,1.19,0.98,1.19C507.51,416.93,507.84,416.53,507.84,415.74z"/>
	<path class="st0" d="M521.19,419.86c0,2.08-0.96,3.13-2.89,3.13c-1.88,0-2.82-1.01-2.82-3.03v-0.31h1.79v0.43
		c0,0.8,0.33,1.2,0.98,1.2c0.7,0,1.05-0.5,1.05-1.49v-2.2c-0.34,0.72-0.93,1.07-1.76,1.07c-1.4,0-2.1-0.92-2.1-2.76v-2.21
		c0-2.01,0.96-3.02,2.88-3.02c1.91,0,2.87,1.01,2.87,3.02V419.86z M519.3,415.74v-2.17c0-0.78-0.33-1.17-0.98-1.17
		c-0.66,0-0.98,0.39-0.98,1.17v2.17c0,0.79,0.33,1.19,0.98,1.19C518.97,416.93,519.3,416.53,519.3,415.74z"/>
	<path class="st0" d="M526.94,413.69c0-2.01,0.96-3.02,2.87-3.02c1.92,0,2.88,1.01,2.88,3.02v6.27c0,2.02-0.96,3.03-2.88,3.03
		c-1.92,0-2.87-1.01-2.87-3.03V413.69z M528.83,420.08c0,0.8,0.33,1.2,0.98,1.2c0.66,0,0.98-0.4,0.98-1.2v-6.5
		c0-0.79-0.33-1.18-0.98-1.18c-0.65,0-0.98,0.4-0.98,1.18V420.08z"/>
</g>
<g>
	<path class="st5" d="M291.26,275.32c0-1.2-0.03-2.17-0.1-2.93c-0.07-0.76-0.16-1.41-0.29-1.96c-0.26-1.52-1.05-2.28-2.38-2.28
		c-1.07,0-1.73,0.6-1.99,1.79c-0.39,0.94-0.58,2.39-0.58,4.37v44.84c0,2.1,0.19,3.56,0.58,4.37c0.26,1.26,0.92,1.89,1.99,1.89
		c1.33,0,2.12-0.79,2.38-2.38c0.13-0.39,0.23-0.98,0.29-1.79c0.06-0.81,0.1-1.85,0.1-3.11v-13.39l7.76-3.49v18.2
		c0,5.18-0.86,8.62-2.57,10.33c-1.94,1.91-4.59,2.86-7.96,2.86c-1.46,0-2.83-0.23-4.13-0.68c-1.3-0.45-2.44-1.18-3.45-2.19
		c-1.04-0.94-1.79-2.33-2.28-4.17c-0.13-0.65-0.26-1.47-0.39-2.47c-0.13-1-0.19-2.17-0.19-3.49v-45.61c0-1.32,0.06-2.46,0.19-3.42
		c0.13-0.95,0.26-1.8,0.39-2.55c0.19-0.84,0.48-1.64,0.85-2.4c0.37-0.76,0.85-1.41,1.43-1.96c2.07-1.71,4.56-2.57,7.47-2.57
		c3.24,0,5.92,0.96,8.06,2.86c0.87,0.87,1.52,2.12,1.94,3.73c0.42,1.62,0.63,3.72,0.63,6.31v12.33c-2.72,0-5.31,1-7.76,3.01V275.32z
		"/>
	<path class="st5" d="M347.52,325.73c-0.43,1.68-1.01,2.99-1.72,3.93c-2,1.97-4.59,2.96-7.76,2.96c-3.17,0-5.79-0.98-7.86-2.96
		c-1.1-1.14-1.86-2.5-2.28-4.08c-0.13-0.71-0.26-1.57-0.39-2.57c-0.13-1-0.2-2.17-0.2-3.49v-45.61c0-1.2,0.07-2.27,0.2-3.23
		c0.13-0.96,0.26-1.74,0.39-2.35c0.42-1.65,1.18-3.1,2.28-4.37c2.07-1.91,4.69-2.86,7.86-2.86c3.04,0,5.63,1.05,7.76,3.16
		c0.58,0.55,1.06,1.27,1.43,2.16c0.37,0.89,0.62,1.94,0.75,3.13c0.13,0.58,0.19,1.47,0.19,2.67c0,1.2,0,2.66,0,4.37v42.75
		C348.18,321.92,347.96,324.05,347.52,325.73z M340.31,272.33c-0.06-0.79-0.16-1.43-0.29-1.92c-0.32-1.39-0.99-2.09-1.99-2.09
		c-1.2,0-1.99,0.63-2.38,1.89c-0.07,0.55-0.13,1.16-0.2,1.82c-0.06,0.66-0.1,1.54-0.1,2.65v44.35c0,1.14,0.03,2.03,0.1,2.69
		c0.07,0.66,0.13,1.22,0.2,1.67c0.39,1.2,1.18,1.8,2.38,1.8c1.07,0,1.73-0.66,1.99-1.99c0.13-0.39,0.22-0.96,0.29-1.72
		c0.07-0.76,0.1-1.71,0.1-2.84v-43.43C340.41,274.09,340.38,273.13,340.31,272.33z"/>
	<path class="st5" d="M378.26,328.26c0.39-0.84,0.58-2.52,0.58-5.05v-52.45c0-1.32-0.05-2.41-0.15-3.25
		c-0.09-0.84-0.24-1.52-0.43-2.04c-0.07-0.51-0.29-1.06-0.66-1.62c-0.37-0.57-0.85-1.15-1.43-1.77h24.26v13.34
		c-0.74-2.46-1.68-4.01-2.81-4.66c-0.78-0.61-2.1-0.92-3.98-0.92h-6.65v21.06h4.56c1,0,1.82-0.01,2.45-0.05
		c0.63-0.03,1.17-0.11,1.63-0.24c0.55-0.32,1.11-0.82,1.67-1.48c0.57-0.66,1.08-1.46,1.53-2.4v16.79c-1.39-2.71-3.16-4.07-5.29-4.07
		h-6.55v23.77c0,2.52,0.09,4.21,0.29,5.05c0.42,1.13,1.18,2.27,2.28,3.4h-13.39C377.5,330.32,378.19,329.19,378.26,328.26z"/>
	<path class="st5" d="M431.63,328.26c0.39-0.84,0.58-2.52,0.58-5.05v-52.45c0-1.32-0.05-2.41-0.15-3.25
		c-0.1-0.84-0.24-1.52-0.44-2.04c-0.07-0.51-0.29-1.06-0.66-1.62c-0.37-0.57-0.85-1.15-1.43-1.77h24.26v13.34
		c-0.74-2.46-1.68-4.01-2.81-4.66c-0.78-0.61-2.1-0.92-3.98-0.92h-6.65v21.06h4.56c1,0,1.82-0.01,2.45-0.05
		c0.63-0.03,1.17-0.11,1.62-0.24c0.55-0.32,1.11-0.82,1.68-1.48c0.57-0.66,1.07-1.46,1.53-2.4v16.79c-1.39-2.71-3.16-4.07-5.29-4.07
		h-6.55v23.77c0,2.52,0.1,4.21,0.29,5.05c0.42,1.13,1.18,2.27,2.28,3.4h-13.39C430.87,330.32,431.57,329.19,431.63,328.26z"/>
	<path class="st5" d="M506.45,275.03c-0.52-1.75-1.27-3.05-2.26-3.91c-0.99-0.85-2.29-1.28-3.91-1.28h-7.04v21.06h3.69
		c0.78,0,1.46-0.01,2.06-0.05c0.6-0.03,1.06-0.17,1.38-0.43c0.68-0.26,1.25-0.72,1.72-1.38c0.47-0.66,0.93-1.43,1.38-2.3v16.79
		c-0.39-0.77-0.79-1.46-1.19-2.06c-0.41-0.6-0.83-1.03-1.29-1.29c-0.87-0.49-1.94-0.73-3.2-0.73h-4.56v24.26h8.93
		c1.13,0,2.01-0.32,2.64-0.94c0.63-0.63,1.17-1.61,1.63-2.94v11.84h-23.53c0.52-0.52,0.93-1.05,1.24-1.58
		c0.31-0.53,0.56-1.07,0.75-1.62c0.32-0.97,0.49-2.55,0.49-4.76v-53.85c0-2.04-0.16-3.56-0.49-4.56c-0.19-0.45-0.45-0.95-0.75-1.48
		c-0.31-0.53-0.72-1.11-1.24-1.72h23.53V275.03z"/>
	<path class="st5" d="M557.11,275.03c-0.52-1.75-1.27-3.05-2.26-3.91c-0.99-0.85-2.29-1.28-3.91-1.28h-7.03v21.06h3.69
		c0.78,0,1.46-0.01,2.06-0.05c0.6-0.03,1.06-0.17,1.38-0.43c0.68-0.26,1.25-0.72,1.72-1.38c0.47-0.66,0.93-1.43,1.38-2.3v16.79
		c-0.39-0.77-0.79-1.46-1.19-2.06c-0.41-0.6-0.83-1.03-1.29-1.29c-0.87-0.49-1.94-0.73-3.2-0.73h-4.56v24.26h8.93
		c1.13,0,2.01-0.32,2.64-0.94c0.63-0.63,1.17-1.61,1.63-2.94v11.84h-23.53c0.52-0.52,0.93-1.05,1.24-1.58
		c0.31-0.53,0.56-1.07,0.75-1.62c0.33-0.97,0.49-2.55,0.49-4.76v-53.85c0-2.04-0.16-3.56-0.49-4.56c-0.19-0.45-0.45-0.95-0.75-1.48
		c-0.31-0.53-0.72-1.11-1.24-1.72h23.53V275.03z"/>
</g>
<g>
	<g>
		<g>
			<path class="st0" d="M456.54,466.41c-4.2,0-6.79-2.44-7.57-5.19c-0.74-2.62,0.26-5.04,2.45-5.9c2.63-1.02,4.37,0.02,5.13,1.34
				c0.91,1.59,0.59,3.73-0.72,4.78c-0.43,0.34-1.07,0.28-1.41-0.16c-0.34-0.43-0.28-1.06,0.16-1.41c0.54-0.43,0.65-1.49,0.23-2.21
				c-0.61-1.07-1.93-0.75-2.66-0.47c-1.38,0.54-1.61,2.18-1.24,3.48c0.67,2.33,3.23,4.33,7.49,3.55
				c8.33-1.83,15.64-7.47,19.52-15.09c2.91-5.71,3.4-11.69,1.34-16.42c-1.67-3.83-6.06-4.99-9.67-4.45
				c-3.08,0.46-6.85,2.45-7.3,6.51c-0.39,3.41,0.62,5.79,2.75,6.54c1.51,0.54,3.07,0.05,3.58-0.74c0.3-0.47,0.4-0.9,0.29-1.3
				c-0.2-0.76-1.1-1.36-1.42-1.53c-0.49-0.25-0.69-0.85-0.44-1.35c0.25-0.49,0.85-0.69,1.34-0.44c0.2,0.1,1.97,1.03,2.45,2.78
				c0.18,0.66,0.24,1.7-0.53,2.91c-1.07,1.67-3.67,2.35-5.93,1.55c-1.14-0.4-4.8-2.22-4.08-8.66c0.48-4.28,4.02-7.53,9-8.28
				c4.35-0.65,9.71,0.83,11.8,5.63c2.31,5.28,1.8,11.9-1.38,18.14c-4.15,8.14-11.97,14.17-20.91,16.14
				C457.99,466.34,457.24,466.41,456.54,466.41z"/>
		</g>
		<g>
			<path class="st6" d="M462.58,416.88c0,4.39-20.7,7.95-46.24,7.95c-25.54,0-46.24-3.56-46.24-7.95c0-4.39,20.71-7.95,46.24-7.95
				C441.88,408.93,462.58,412.49,462.58,416.88z"/>
			<path class="st0" d="M375.2,420.51c7.67,2.57,23.2,4.32,41.14,4.32c17.93,0,33.47-1.76,41.14-4.32
				c-7.67-2.56-23.21-4.32-41.14-4.32C398.4,416.19,382.87,417.95,375.2,420.51z"/>
			<path class="st0" d="M416.34,427.3c-25.54,0-46.24-3.56-46.24-7.95v7.61c0,25.54,20.71,46.24,46.24,46.24
				c25.54,0,46.24-20.7,46.24-46.24v-7.61C462.58,423.74,441.88,427.3,416.34,427.3z"/>
			<g>
				<path class="st6" d="M385.99,426.95v-1.61c-9.73-1.46-15.9-3.6-15.9-6v7.61c0,25.54,20.71,46.24,46.24,46.24
					c2.72,0,5.37-0.25,7.95-0.7C402.53,468.73,385.99,449.78,385.99,426.95z"/>
			</g>
		</g>
	</g>
	<g>
		<path class="st7" d="M419.77,360.46c0,0-0.61,0.55-1.55,1.6c-0.94,1.05-2.24,2.59-3.44,4.61c-1.19,2.01-2.28,4.52-2.48,7.26
			c-0.28,2.73,0.48,5.61,1.93,8.2c0.71,1.26,1.69,2.6,2.52,3.97c0.86,1.43,1.68,2.83,2.33,4.27c0.64,1.45,1.26,2.86,1.6,4.31
			c0.37,1.43,0.63,2.84,0.59,4.16c0.02,1.31-0.19,2.53-0.56,3.53c-0.32,1.01-0.81,1.8-1.21,2.41c-0.42,0.6-0.8,1.03-1.08,1.31
			c-0.27,0.28-0.41,0.42-0.41,0.42s0.38-0.74,0.84-2.06c0.19-0.66,0.44-1.46,0.51-2.39c0.08-0.92,0.08-1.95-0.14-3.06
			c-0.2-1.1-0.54-2.28-1.05-3.49c-0.5-1.21-1.11-2.48-1.82-3.75c-0.73-1.27-1.5-2.58-2.33-3.86c-0.88-1.32-1.81-2.61-2.66-4.2
			c-0.81-1.55-1.49-3.22-1.79-4.97c-0.32-1.74-0.32-3.51-0.05-5.16c0.59-3.32,2.2-6,3.83-7.93c1.64-1.94,3.3-3.22,4.49-4.03
			C419.03,360.8,419.77,360.46,419.77,360.46z"/>
		<path class="st7" d="M429.26,365.25c0,0-0.6,0.47-1.55,1.39c-0.95,0.9-2.27,2.23-3.56,3.99c-1.27,1.74-2.52,3.97-2.81,6.44
			c-0.38,2.45,0.38,5.03,1.86,7.31c0.71,1.1,1.72,2.27,2.59,3.47c0.9,1.26,1.77,2.51,2.48,3.81c0.68,1.31,1.37,2.58,1.76,3.93
			c0.44,1.31,0.73,2.64,0.73,3.9c0.05,1.25-0.18,2.41-0.57,3.34c-0.34,0.95-0.86,1.65-1.28,2.19c-0.44,0.53-0.83,0.9-1.11,1.13
			c-0.27,0.24-0.42,0.36-0.42,0.36s0.4-0.67,0.9-1.86c0.21-0.61,0.48-1.33,0.56-2.18c0.1-0.84,0.1-1.78-0.14-2.77
			c-0.23-0.99-0.58-2.05-1.14-3.13c-0.53-1.07-1.19-2.19-1.93-3.32c-0.78-1.12-1.56-2.27-2.43-3.39c-0.92-1.15-1.88-2.29-2.77-3.75
			c-0.85-1.41-1.58-2.96-1.9-4.63c-0.33-1.66-0.3-3.37,0.04-4.92c0.75-3.14,2.55-5.47,4.23-7.1c1.72-1.63,3.36-2.66,4.54-3.31
			C428.54,365.52,429.26,365.25,429.26,365.25z"/>
		<path class="st7" d="M410.23,365.25c0,0-0.6,0.47-1.55,1.39c-0.95,0.9-2.27,2.23-3.56,3.99c-1.26,1.74-2.52,3.97-2.8,6.44
			c-0.38,2.45,0.38,5.03,1.86,7.31c0.71,1.1,1.72,2.27,2.59,3.47c0.89,1.26,1.77,2.51,2.47,3.81c0.68,1.31,1.37,2.58,1.76,3.93
			c0.44,1.31,0.73,2.64,0.73,3.9c0.04,1.25-0.18,2.41-0.56,3.34c-0.34,0.95-0.86,1.65-1.28,2.19c-0.45,0.53-0.83,0.9-1.11,1.13
			c-0.27,0.24-0.42,0.36-0.42,0.36s0.4-0.67,0.9-1.86c0.21-0.61,0.48-1.33,0.56-2.18c0.09-0.84,0.09-1.78-0.15-2.77
			c-0.23-0.99-0.58-2.05-1.14-3.13c-0.53-1.07-1.19-2.19-1.92-3.32c-0.78-1.12-1.57-2.27-2.44-3.39c-0.92-1.15-1.88-2.29-2.77-3.75
			c-0.85-1.41-1.58-2.96-1.9-4.63c-0.33-1.66-0.3-3.37,0.04-4.92c0.75-3.14,2.55-5.47,4.24-7.1c1.71-1.63,3.36-2.66,4.54-3.31
			C409.51,365.52,410.23,365.25,410.23,365.25z"/>
	</g>
</g>
</svg>
