<?xml version="1.0" standalone="no"?>
<!DOCTYPE svg PUBLIC "-//W3C//DTD SVG 20010904//EN"
 "http://www.w3.org/TR/2001/REC-SVG-20010904/DTD/svg10.dtd">
<svg version="1.0" xmlns="http://www.w3.org/2000/svg"
 width="446.000000pt" height="187.000000pt" viewBox="0 0 446.000000 187.000000"
 preserveAspectRatio="xMidYMid meet">

<g transform="translate(0.000000,187.000000) scale(0.100000,-0.100000)"
fill="#000000" stroke="none">
<path d="M2876 1358 c-60 -17 -121 -82 -136 -147 -36 -153 65 -271 232 -271
95 0 178 43 205 107 21 51 12 63 -45 63 -42 0 -54 -5 -85 -35 -48 -47 -104
-49 -148 -6 -25 26 -29 37 -29 86 0 49 4 60 29 86 42 41 102 41 141 -1 25 -26
35 -30 84 -30 51 0 56 2 56 23 0 37 -36 85 -82 108 -50 26 -161 34 -222 17z"/>
<path d="M1300 1156 l0 -206 60 0 60 0 0 70 0 71 57 -3 c53 -3 59 -6 78 -36
63 -102 57 -97 114 -100 85 -5 88 -1 51 66 -18 31 -44 69 -58 84 l-25 27 27
13 c30 13 56 55 56 90 0 34 -35 85 -72 105 -27 14 -63 18 -190 21 l-158 4 0
-206z m270 94 c40 -40 2 -70 -89 -70 l-61 0 0 38 c0 21 3 42 7 45 3 4 33 7 65
7 44 0 63 -5 78 -20z"/>
<path d="M1805 1347 c-3 -7 -4 -98 -3 -202 l3 -190 195 0 195 0 3 24 c2 12 1
34 -2 47 -6 24 -8 24 -136 24 l-130 0 0 30 0 30 100 0 100 0 0 45 0 45 -100 0
-100 0 0 30 0 30 130 0 c128 0 130 0 136 24 3 13 4 35 2 47 l-3 24 -193 3
c-151 2 -194 0 -197 -11z"/>
<path d="M2370 1313 c-102 -229 -150 -342 -150 -352 0 -7 22 -11 60 -11 59 0
61 1 77 35 l17 35 91 0 91 0 17 -35 c16 -34 18 -35 76 -35 33 0 62 4 65 8 4 7
-146 357 -167 390 -5 8 -34 12 -82 12 l-74 0 -21 -47z m139 -180 c1 -9 -14
-13 -44 -13 -25 0 -45 3 -45 7 0 4 10 32 22 62 l23 54 22 -49 c12 -27 22 -55
22 -61z"/>
<path d="M3222 1313 l3 -48 67 -3 67 -3 3 -152 3 -152 60 0 60 0 3 152 3 152
67 3 67 3 0 45 0 45 -203 3 -203 2 3 -47z"/>
<path d="M486 1246 c-19 -29 -21 -59 -5 -88 8 -14 8 -23 0 -31 -15 -15 -14
-47 2 -47 6 0 18 14 26 30 10 24 11 37 1 59 -8 21 -8 34 1 55 18 38 -2 56 -25
22z"/>
<path d="M606 1246 c-19 -30 -21 -59 -4 -86 10 -15 10 -22 0 -32 -16 -16 -16
-48 1 -48 13 0 37 45 37 70 0 9 -5 21 -11 27 -9 9 -9 20 1 43 17 42 0 61 -24
26z"/>
<path d="M726 1242 c-19 -37 -20 -56 -4 -82 10 -15 10 -22 0 -32 -16 -16 -15
-48 1 -48 28 0 48 75 26 97 -9 9 -9 20 1 43 19 45 -2 64 -24 22z"/>
<path d="M313 1024 c-3 -8 -4 -64 -1 -123 4 -92 8 -117 32 -164 33 -67 100
-130 163 -151 26 -9 76 -16 112 -16 90 0 153 30 217 104 43 49 53 56 87 56 79
0 142 50 154 123 11 69 -54 137 -129 137 -34 0 -38 3 -38 25 l0 25 -295 0
c-258 0 -296 -2 -302 -16z m567 -102 c0 -109 -19 -175 -65 -229 -94 -110 -266
-124 -377 -33 -62 51 -89 122 -96 245 l-5 105 272 0 271 0 0 -88z m119 23 c34
-17 55 -62 46 -98 -11 -43 -69 -87 -115 -87 l-39 0 10 32 c5 18 9 63 9 100 l0
68 30 0 c17 0 44 -7 59 -15z"/>
<path d="M1395 821 c-75 -35 -115 -102 -115 -193 1 -91 45 -160 122 -193 53
-22 181 -20 233 4 52 23 95 74 95 112 0 28 -1 29 -54 29 -49 0 -58 -4 -90 -36
-33 -33 -40 -36 -77 -31 -22 3 -49 13 -59 22 -46 42 -49 144 -5 185 13 12 41
24 63 27 36 5 44 2 78 -31 32 -31 44 -36 84 -36 54 0 66 14 49 58 -27 70 -90
102 -204 102 -57 0 -92 -6 -120 -19z"/>
<path d="M1889 817 c-24 -13 -57 -43 -74 -66 -27 -39 -30 -50 -30 -121 0 -71
3 -82 30 -121 45 -63 101 -89 195 -89 166 0 244 67 244 210 0 143 -78 210
-244 210 -61 0 -86 -5 -121 -23z m208 -102 c33 -37 33 -133 1 -170 -26 -30
-80 -42 -120 -26 -80 31 -84 188 -5 221 38 17 100 4 124 -25z"/>
<path d="M2330 630 l0 -201 63 3 62 3 3 62 3 62 97 3 97 3 0 45 0 45 -97 3
-98 3 0 39 0 40 125 0 125 0 0 45 0 45 -190 0 -190 0 0 -200z"/>
<path d="M2770 630 l0 -200 65 0 65 0 0 65 0 65 101 0 100 0 -3 48 -3 47 -97
3 -98 3 0 39 0 40 125 0 125 0 0 45 0 45 -190 0 -190 0 0 -200z"/>
<path d="M3214 817 c-2 -7 -3 -96 -2 -197 l3 -185 198 -3 197 -2 0 45 0 45
-135 0 -135 0 0 30 0 30 99 0 c97 0 99 0 103 25 3 14 3 36 0 50 -4 25 -6 25
-103 25 l-99 0 0 30 0 30 135 0 135 0 0 45 0 45 -195 0 c-150 0 -197 -3 -201
-13z"/>
<path d="M3680 630 l0 -200 195 0 195 0 0 45 0 44 -132 3 -133 3 -3 27 -3 27
103 3 103 3 0 45 0 45 -103 3 -103 3 3 27 3 27 133 3 132 3 0 44 0 45 -195 0
-195 0 0 -200z"/>
<path d="M317 534 c-20 -20 31 -24 299 -24 255 0 294 2 294 15 0 13 -39 15
-293 15 -162 0 -297 -3 -300 -6z"/>
</g>
</svg>
