<?xml version="1.0" encoding="UTF-8"?>
<!DOCTYPE svg PUBLIC "-//W3C//DTD SVG 1.1//EN" "http://www.w3.org/Graphics/SVG/1.1/DTD/svg11.dtd">
<svg xmlns="http://www.w3.org/2000/svg" version="1.1" width="2529px" height="1087px" style="shape-rendering:geometricPrecision; text-rendering:geometricPrecision; image-rendering:optimizeQuality; fill-rule:evenodd; clip-rule:evenodd" xmlns:xlink="http://www.w3.org/1999/xlink">
<g><path style="opacity:0.996" fill="#000000" d="M -0.5,-0.5 C 842.5,-0.5 1685.5,-0.5 2528.5,-0.5C 2528.5,361.833 2528.5,724.167 2528.5,1086.5C 1685.5,1086.5 842.5,1086.5 -0.5,1086.5C -0.5,724.167 -0.5,361.833 -0.5,-0.5 Z M 393.5,146.5 C 394.873,146.343 396.207,146.51 397.5,147C 409.668,157.505 417.001,170.672 419.5,186.5C 418.608,194.066 416.775,201.4 414,208.5C 409.724,218.052 405.724,227.719 402,237.5C 398.717,248.16 398.717,258.827 402,269.5C 406.405,282.714 410.405,296.047 414,309.5C 418.758,330.896 412.591,348.396 395.5,362C 393.35,363.411 391.016,364.245 388.5,364.5C 390.918,357.306 393.085,349.973 395,342.5C 396.254,328.692 394.254,315.358 389,302.5C 380.431,287.626 375.597,271.626 374.5,254.5C 374.987,244.897 376.821,235.564 380,226.5C 385.883,214.736 391.216,202.736 396,190.5C 396.667,185.167 396.667,179.833 396,174.5C 393.29,165.269 392.456,155.935 393.5,146.5 Z M 319.5,229.5 C 334.441,237.125 339.608,249.125 335,265.5C 333.276,273.672 330.943,281.672 328,289.5C 327.141,292.948 326.641,296.448 326.5,300C 329.102,314.244 332.102,328.411 335.5,342.5C 332.338,353.184 326.171,361.851 317,368.5C 315.481,366.444 314.647,364.11 314.5,361.5C 315.57,353.522 315.737,345.522 315,337.5C 312.169,328.169 308.502,319.169 304,310.5C 299.333,300.833 299.333,291.167 304,281.5C 312.198,267.242 316.531,251.908 317,235.5C 317.236,233.189 318.069,231.189 319.5,229.5 Z M 472.5,229.5 C 485.348,232.523 492.348,240.69 493.5,254C 491.533,265.369 488.699,276.535 485,287.5C 483.512,295.445 483.178,303.445 484,311.5C 487.726,323.582 489.393,335.915 489,348.5C 487.346,358.322 481.846,364.989 472.5,368.5C 472.795,360.156 472.295,351.823 471,343.5C 468.603,333.975 465.603,324.642 462,315.5C 458.09,304.577 457.757,293.577 461,282.5C 465.777,272.841 469.777,262.841 473,252.5C 473.743,245.912 473.243,239.412 471.5,233C 471.648,231.744 471.982,230.577 472.5,229.5 Z M 1763.5,249.5 C 1788.96,249.424 1812.96,255.257 1835.5,267C 1848.49,274.987 1858.32,285.82 1865,299.5C 1867.5,308.27 1868,317.103 1866.5,326C 1850.84,327.128 1835.18,327.461 1819.5,327C 1815.46,326.144 1811.79,324.478 1808.5,322C 1801.77,314.595 1794.43,307.928 1786.5,302C 1774.35,298.322 1762.02,297.656 1749.5,300C 1737.24,303.924 1728.41,311.757 1723,323.5C 1713.13,347.856 1715.13,371.189 1729,393.5C 1743.73,412.061 1762.23,416.894 1784.5,408C 1787.66,406.587 1790.66,404.92 1793.5,403C 1799.87,396.969 1805.87,390.636 1811.5,384C 1814.62,382.107 1817.95,380.774 1821.5,380C 1834.82,378.265 1848.16,378.265 1861.5,380C 1868.66,380.058 1872.66,383.558 1873.5,390.5C 1870.98,408.367 1862.65,422.867 1848.5,434C 1824.36,451.822 1797.19,459.988 1767,458.5C 1735.92,460.113 1708.09,451.613 1683.5,433C 1660.32,412.129 1648.99,385.962 1649.5,354.5C 1650.35,310.505 1670.69,279.339 1710.5,261C 1727.65,254.148 1745.31,250.315 1763.5,249.5 Z M 1260.5,253.5 C 1291.51,253.334 1322.51,253.834 1353.5,255C 1363.57,255.341 1373.57,256.341 1383.5,258C 1384.93,258.465 1386.1,259.299 1387,260.5C 1392.02,273.277 1391.52,285.777 1385.5,298C 1373.4,301.123 1361.07,302.79 1348.5,303C 1318.82,303.792 1289.16,304.625 1259.5,305.5C 1259.33,311.176 1259.5,316.843 1260,322.5C 1260.83,323.333 1261.67,324.167 1262.5,325C 1270.39,326.849 1278.39,327.849 1286.5,328C 1309.21,328.922 1331.88,330.089 1354.5,331.5C 1355.5,346.152 1355.83,360.818 1355.5,375.5C 1322.86,376.739 1290.19,377.739 1257.5,378.5C 1257.33,384.842 1257.5,391.175 1258,397.5C 1258.61,400.548 1260.11,403.048 1262.5,405C 1268.1,406.124 1273.77,406.79 1279.5,407C 1312.52,407.642 1345.52,408.642 1378.5,410C 1385.23,410.431 1389.06,413.931 1390,420.5C 1390.67,427.5 1390.67,434.5 1390,441.5C 1388.87,446.498 1385.71,449.331 1380.5,450C 1376.21,450.912 1371.87,451.579 1367.5,452C 1316.83,452.667 1266.17,452.667 1215.5,452C 1210.12,451.693 1204.78,451.026 1199.5,450C 1197.15,449.654 1195.32,448.487 1194,446.5C 1193,439.533 1192.34,432.533 1192,425.5C 1191.33,390.833 1191.33,356.167 1192,321.5C 1192.2,301.081 1193.53,280.747 1196,260.5C 1196.5,259.333 1197.33,258.5 1198.5,258C 1219.24,255.462 1239.91,253.962 1260.5,253.5 Z M 971.5,254.5 C 1004.17,254.333 1036.84,254.5 1069.5,255C 1092.55,255.461 1113.55,262.128 1132.5,275C 1146.5,286.667 1153.5,301.667 1153.5,320C 1154.07,333.297 1149.41,344.297 1139.5,353C 1132.24,357.794 1125.57,363.294 1119.5,369.5C 1139.77,392.995 1155.77,419.329 1167.5,448.5C 1167.29,449.086 1166.96,449.586 1166.5,450C 1163.25,451.036 1159.91,451.703 1156.5,452C 1140.45,452.921 1124.45,452.588 1108.5,451C 1103.55,449.28 1099.39,446.446 1096,442.5C 1088.49,430.155 1081.49,417.488 1075,404.5C 1068.98,393.829 1059.81,387.995 1047.5,387C 1035.5,386.5 1023.5,386.333 1011.5,386.5C 1010.99,407.839 1010.32,429.172 1009.5,450.5C 988.833,450.5 968.167,450.5 947.5,450.5C 947.288,412.333 946.955,374.166 946.5,336C 946.424,314.148 946.924,292.315 948,270.5C 947.777,265.639 949.277,261.473 952.5,258C 958.879,256.326 965.213,255.16 971.5,254.5 Z M 1497.5,254.5 C 1517.51,254.167 1537.51,254.5 1557.5,255.5C 1586.96,316.424 1614.8,378.091 1641,440.5C 1642.17,443.5 1643.33,446.5 1644.5,449.5C 1644.17,449.833 1643.83,450.167 1643.5,450.5C 1636.09,451.942 1628.59,452.609 1621,452.5C 1607.17,451.988 1593.33,451.488 1579.5,451C 1578.38,450.751 1577.38,450.251 1576.5,449.5C 1571.45,440.074 1566.95,430.407 1563,420.5C 1533.88,419.802 1504.71,420.469 1475.5,422.5C 1470.96,432.409 1466.3,442.243 1461.5,452C 1443.5,452.667 1425.5,452.667 1407.5,452C 1403.83,451.835 1401.16,450.168 1399.5,447C 1424.13,383.913 1451.63,322.08 1482,261.5C 1486.52,257.504 1491.68,255.17 1497.5,254.5 Z M 1909.5,254.5 C 1969.18,254.464 2028.85,255.131 2088.5,256.5C 2088.5,271.5 2088.5,286.5 2088.5,301.5C 2066.12,302.295 2043.79,303.628 2021.5,305.5C 2020.77,353.88 2019.1,402.213 2016.5,450.5C 1998.53,452.506 1980.53,452.672 1962.5,451C 1960.41,450.208 1958.58,449.041 1957,447.5C 1955.92,440.209 1955.25,432.876 1955,425.5C 1954.67,386.167 1954.33,346.833 1954,307.5C 1947.86,304.605 1941.36,303.105 1934.5,303C 1919.52,301.988 1904.52,301.488 1889.5,301.5C 1888.19,288.86 1887.69,276.193 1888,263.5C 1889.17,261 1891,259.167 1893.5,258C 1898.87,256.362 1904.2,255.195 1909.5,254.5 Z M 439.5,384.5 C 476.94,384.283 514.273,386.116 551.5,390C 574.441,392.395 595.774,399.395 615.5,411C 620.905,415.061 624.738,420.228 627,426.5C 628.938,429.106 631.438,430.939 634.5,432C 650.329,435.366 665.996,439.366 681.5,444C 709.348,455.187 730.182,474.02 744,500.5C 755.407,533.062 751.073,563.395 731,591.5C 705.137,625.014 670.971,641.848 628.5,642C 620.996,640.169 619.163,636.002 623,629.5C 627.69,623.232 633.857,619.065 641.5,617C 677.821,614.595 703.988,597.095 720,564.5C 728.089,533.771 720.255,507.938 696.5,487C 683.595,476.785 669.262,469.119 653.5,464C 648.572,462.582 643.572,462.249 638.5,463C 636.477,466.183 635.977,469.683 637,473.5C 637.583,475.002 638.416,476.335 639.5,477.5C 656.486,480.83 671.819,487.664 685.5,498C 701.35,513.569 706.183,532.069 700,553.5C 692.92,570.914 680.753,583.414 663.5,591C 653.669,594.291 643.669,596.958 633.5,599C 628.2,600.229 624.033,603.062 621,607.5C 608.436,639.051 589.936,666.551 565.5,690C 544.484,707.507 520.484,719.173 493.5,725C 434.045,738.538 375.711,734.871 318.5,714C 270.738,691.902 238.905,655.735 223,605.5C 212.52,555.27 209.187,504.603 213,453.5C 214.28,441.661 217.946,430.661 224,420.5C 230.61,413.774 238.443,408.94 247.5,406C 268.425,399.734 289.759,395.401 311.5,393C 354.204,388.332 396.87,385.498 439.5,384.5 Z M 288.5,505.5 C 291.038,508.245 292.538,511.578 293,515.5C 294.689,528.462 296.023,541.462 297,554.5C 300.034,575.603 307.034,595.27 318,613.5C 320.27,619.431 318.437,620.931 312.5,618C 293.348,601.198 282.515,580.031 280,554.5C 278.464,540.195 279.797,526.195 284,512.5C 285.012,509.798 286.512,507.465 288.5,505.5 Z M 1029.5,625.5 C 1049.19,625.153 1068.86,625.653 1088.5,627C 1105.53,629.227 1120.53,635.894 1133.5,647C 1142.11,654.278 1149.28,662.778 1155,672.5C 1158.62,679.92 1159.62,687.587 1158,695.5C 1155.9,698.467 1153.07,700.3 1149.5,701C 1136.88,702.564 1124.22,702.897 1111.5,702C 1108.36,701.399 1105.36,700.399 1102.5,699C 1095.86,693.366 1089.53,687.366 1083.5,681C 1066.2,669.44 1048.2,668.44 1029.5,678C 1016.59,686.628 1009.43,698.794 1008,714.5C 1005.33,732.492 1008.66,749.159 1018,764.5C 1030.95,778.039 1046.78,783.205 1065.5,780C 1078.29,775.89 1088.96,768.557 1097.5,758C 1101.37,754.796 1105.7,752.462 1110.5,751C 1127.46,749.607 1144.46,749.107 1161.5,749.5C 1163.15,766.377 1158.32,781.043 1147,793.5C 1124.04,817.939 1095.7,829.272 1062,827.5C 1038.06,828.031 1014.9,824.197 992.5,816C 957.581,796.183 939.915,766.016 939.5,725.5C 943.339,668.339 973.339,635.006 1029.5,625.5 Z M 1286.5,625.5 C 1304.21,625.557 1321.87,626.391 1339.5,628C 1395.75,643.308 1421.92,680.142 1418,738.5C 1412.67,781.829 1389.17,809.996 1347.5,823C 1342.88,823.958 1338.21,824.625 1333.5,825C 1312.5,825.667 1291.5,825.667 1270.5,825C 1253.69,824.094 1238.69,818.427 1225.5,808C 1198.88,787.759 1185.55,760.759 1185.5,727C 1185.12,684.093 1204.12,653.093 1242.5,634C 1256.87,628.891 1271.54,626.058 1286.5,625.5 Z M 1454.5,628.5 C 1515.83,629.51 1577.16,630.177 1638.5,630.5C 1638.5,645.5 1638.5,660.5 1638.5,675.5C 1597.5,676.568 1556.5,677.568 1515.5,678.5C 1516.07,690.506 1516.74,702.506 1517.5,714.5C 1550.17,715.115 1582.83,715.782 1615.5,716.5C 1615.67,725.173 1615.5,733.84 1615,742.5C 1614.73,747.996 1612.89,752.83 1609.5,757C 1598.36,759.798 1587.03,761.132 1575.5,761C 1555.5,761.5 1535.5,761.667 1515.5,761.5C 1515.17,781.512 1514.5,801.512 1513.5,821.5C 1496.51,822.528 1479.51,823.028 1462.5,823C 1457.97,822.802 1454.8,820.635 1453,816.5C 1451.91,810.218 1451.24,803.884 1451,797.5C 1450.57,773.665 1450.07,749.832 1449.5,726C 1450.07,702.168 1450.57,678.335 1451,654.5C 1451.08,645.663 1452.25,636.996 1454.5,628.5 Z M 1732.5,628.5 C 1774.17,628.5 1815.83,628.5 1857.5,628.5C 1856.69,644.16 1856.03,659.827 1855.5,675.5C 1815.19,677.338 1774.86,678.672 1734.5,679.5C 1734.5,691.167 1734.5,702.833 1734.5,714.5C 1767.17,715.133 1799.83,715.8 1832.5,716.5C 1832.8,728.206 1832.3,739.873 1831,751.5C 1830.11,755.112 1827.94,757.612 1824.5,759C 1793.87,761.109 1763.21,761.942 1732.5,761.5C 1731.67,781.494 1731,801.494 1730.5,821.5C 1711.17,821.5 1691.83,821.5 1672.5,821.5C 1672.15,781.501 1671.81,741.501 1671.5,701.5C 1671.37,678.799 1671.87,656.132 1673,633.5C 1675.66,632.166 1678.49,631.332 1681.5,631C 1698.65,630.038 1715.65,629.205 1732.5,628.5 Z M 1909.5,629.5 C 1966.5,629.64 2023.5,629.973 2080.5,630.5C 2081.27,642.16 2081.44,653.827 2081,665.5C 2079.53,669.641 2076.69,672.474 2072.5,674C 2066.99,675.851 2061.33,676.851 2055.5,677C 2019.83,677.5 1984.17,677.667 1948.5,677.5C 1949.39,685.48 1950.05,693.48 1950.5,701.5C 1982.48,703.209 2014.48,704.543 2046.5,705.5C 2048.29,717.165 2048.46,728.831 2047,740.5C 2046.43,742.492 2045.26,743.992 2043.5,745C 2035.95,746.812 2028.29,747.812 2020.5,748C 1996.5,748.5 1972.5,748.667 1948.5,748.5C 1949.39,756.48 1950.05,764.48 1950.5,772.5C 1981.51,773.015 2012.51,773.848 2043.5,775C 2054.31,775.312 2064.98,776.645 2075.5,779C 2079.01,781.521 2080.85,785.021 2081,789.5C 2081.38,800.171 2081.21,810.838 2080.5,821.5C 2016.83,821.5 1953.17,821.5 1889.5,821.5C 1888.48,760.17 1888.31,698.837 1889,637.5C 1888.95,634.809 1890.11,632.976 1892.5,632C 1898.3,631.109 1903.97,630.275 1909.5,629.5 Z M 2134.5,629.5 C 2191.5,629.64 2248.5,629.973 2305.5,630.5C 2306.27,642.16 2306.44,653.827 2306,665.5C 2304.5,669.667 2301.67,672.5 2297.5,674C 2291.97,675.726 2286.3,676.726 2280.5,677C 2251.83,677.339 2223.16,678.006 2194.5,679C 2188.07,679.088 2181.9,680.255 2176,682.5C 2174.75,688.706 2175.59,694.539 2178.5,700C 2180.09,700.862 2181.75,701.529 2183.5,702C 2213.47,703.443 2243.47,703.943 2273.5,703.5C 2273.67,714.505 2273.5,725.505 2273,736.5C 2272.56,740.566 2270.72,743.732 2267.5,746C 2260.88,747.108 2254.22,747.775 2247.5,748C 2222.84,748.5 2198.17,748.667 2173.5,748.5C 2174.39,756.48 2175.05,764.48 2175.5,772.5C 2206.51,773.015 2237.51,773.848 2268.5,775C 2279.31,775.312 2289.98,776.645 2300.5,779C 2304.01,781.521 2305.85,785.021 2306,789.5C 2306.31,800.169 2306.15,810.836 2305.5,821.5C 2241.83,821.5 2178.17,821.5 2114.5,821.5C 2113.47,760.17 2113.31,698.837 2114,637.5C 2113.95,634.809 2115.11,632.976 2117.5,632C 2123.3,631.109 2128.97,630.275 2134.5,629.5 Z M 580.5,708.5 C 611.666,708.944 642.666,711.444 673.5,716C 705.749,720.802 709.082,733.136 683.5,753C 665.804,761.759 647.138,767.425 627.5,770C 511.939,791.033 395.606,797.366 278.5,789C 254.786,787.159 231.453,783.159 208.5,777C 188.688,771.182 171.855,760.682 158,745.5C 152.88,739.086 153.38,733.253 159.5,728C 166.678,723.955 174.345,721.288 182.5,720C 207.288,715.171 232.288,712.838 257.5,713C 258.416,713.374 259.25,713.874 260,714.5C 261.945,720.936 260.112,725.769 254.5,729C 237.863,730.758 221.196,732.258 204.5,733.5C 200.758,734.015 197.091,734.848 193.5,736C 191.398,737.733 191.065,739.733 192.5,742C 222.546,754.678 253.88,761.678 286.5,763C 346.833,763.667 407.167,763.667 467.5,763C 516.137,762.586 564.47,758.586 612.5,751C 625.275,748.845 637.942,746.178 650.5,743C 654.263,742.08 657.763,740.58 661,738.5C 661.72,736.888 661.554,735.388 660.5,734C 655.716,731.887 650.716,730.554 645.5,730C 622.201,728.262 598.868,727.262 575.5,727C 570.995,726.737 566.661,725.737 562.5,724C 559.911,720.264 559.911,716.598 562.5,713C 568.349,710.399 574.349,708.899 580.5,708.5 Z"/></g>
<g><path style="opacity:0.961" fill="#000000" d="M 1037.5,298.5 C 1046.89,298.702 1056.22,299.535 1065.5,301C 1073.38,302.021 1079.88,305.521 1085,311.5C 1089.77,323.795 1085.94,332.295 1073.5,337C 1069.58,338.313 1065.58,339.313 1061.5,340C 1044.87,341.372 1028.2,341.872 1011.5,341.5C 1011.33,331.494 1011.5,321.494 1012,311.5C 1011.18,304.171 1014.35,300.338 1021.5,300C 1027.02,299.827 1032.35,299.327 1037.5,298.5 Z"/></g>
<g><path style="opacity:0.942" fill="#000000" d="M 1517.5,323.5 C 1520.04,323.104 1522.21,323.771 1524,325.5C 1532.03,339.925 1537.03,355.258 1539,371.5C 1538.25,372.126 1537.42,372.626 1536.5,373C 1525.52,374.948 1514.52,374.948 1503.5,373C 1501.45,372.313 1499.78,371.146 1498.5,369.5C 1502.89,353.318 1509.22,337.985 1517.5,323.5 Z"/></g>
<g><path style="opacity:0.94" fill="#000000" d="M 418.5,409.5 C 452.846,409.203 487.18,409.703 521.5,411C 531.212,411.561 540.879,412.561 550.5,414C 554.403,414.468 558.07,415.634 561.5,417.5C 561.291,418.086 560.957,418.586 560.5,419C 486.322,431.527 411.655,436.193 336.5,433C 319.101,431.994 301.768,430.327 284.5,428C 281.335,427.923 279.001,426.59 277.5,424C 277.905,423.055 278.572,422.388 279.5,422C 325.762,415.325 372.095,411.158 418.5,409.5 Z"/></g>
<g><path style="opacity:0.989" fill="#000000" d="M 583.5,432.5 C 593.085,430.7 599.251,434.367 602,443.5C 604.048,457.747 605.214,472.081 605.5,486.5C 604.788,503.826 604.288,521.159 604,538.5C 603.828,547.932 602.828,557.265 601,566.5C 599.99,570.843 597.49,574.01 593.5,576C 578.089,579.353 562.755,583.02 547.5,587C 543.241,587.799 539.575,589.632 536.5,592.5C 538.547,594.015 540.881,594.849 543.5,595C 560.805,596.32 578.139,596.82 595.5,596.5C 596.002,602.841 593.335,607.341 587.5,610C 574.328,613.406 560.995,616.073 547.5,618C 544.304,618.396 541.47,619.562 539,621.5C 538.318,625.18 539.818,627.68 543.5,629C 548.517,630.737 553.684,631.57 559,631.5C 564.503,630.887 570.003,630.721 575.5,631C 576.938,631.219 578.271,631.719 579.5,632.5C 577.323,639.509 572.657,644.009 565.5,646C 555.587,648.978 545.587,651.645 535.5,654C 530.1,655.287 525.433,657.787 521.5,661.5C 521.977,662.478 522.643,663.311 523.5,664C 531.512,664.956 539.512,665.956 547.5,667C 548.357,667.689 549.023,668.522 549.5,669.5C 548.363,672.47 546.363,674.636 543.5,676C 530.447,681.181 517.447,686.515 504.5,692C 503.643,692.689 502.977,693.522 502.5,694.5C 505.113,697.371 505.113,700.205 502.5,703C 490.461,708.609 477.795,711.943 464.5,713C 414.853,720.838 368.186,712.504 324.5,688C 289.283,665.773 264.783,634.939 251,595.5C 248.603,585.988 247.269,576.322 247,566.5C 245.579,526.842 245.245,487.176 246,447.5C 246.303,445.112 247.137,442.945 248.5,441C 274.494,443.712 300.494,446.712 326.5,450C 378.936,452.793 431.269,451.459 483.5,446C 517.082,442.273 550.415,437.773 583.5,432.5 Z M 288.5,505.5 C 286.512,507.465 285.012,509.798 284,512.5C 279.797,526.195 278.464,540.195 280,554.5C 282.515,580.031 293.348,601.198 312.5,618C 318.437,620.931 320.27,619.431 318,613.5C 307.034,595.27 300.034,575.603 297,554.5C 296.023,541.462 294.689,528.462 293,515.5C 292.538,511.578 291.038,508.245 288.5,505.5 Z"/></g>
<g><path style="opacity:0.953" fill="#000000" d="M 636.5,503.5 C 661.836,507.34 673.003,522.007 670,547.5C 665.054,563.458 654.387,572.458 638,574.5C 635.04,574.557 632.207,574.057 629.5,573C 628.892,571.769 628.559,570.436 628.5,569C 631.302,549.941 632.802,530.774 633,511.5C 633.368,508.435 634.535,505.768 636.5,503.5 Z"/></g>
<g><path style="opacity:0.979" fill="#000000" d="M 1295.5,670.5 C 1331.81,670.808 1350.81,689.141 1352.5,725.5C 1350.27,766.898 1328.6,784.732 1287.5,779C 1267.3,773.12 1256.13,759.62 1254,738.5C 1251.18,720.739 1254.18,704.072 1263,688.5C 1271.62,678.441 1282.45,672.441 1295.5,670.5 Z"/></g>
</svg>
