<?xml version="1.0" standalone="no"?>
<!DOCTYPE svg PUBLIC "-//W3C//DTD SVG 20010904//EN"
 "http://www.w3.org/TR/2001/REC-SVG-20010904/DTD/svg10.dtd">
<svg version="1.0" xmlns="http://www.w3.org/2000/svg"
 width="6805.000000pt" height="2138.000000pt" viewBox="0 0 6805.000000 2138.000000"
 preserveAspectRatio="xMidYMid meet">

<g transform="translate(0.000000,2138.000000) scale(0.100000,-0.100000)"
fill="#000000" stroke="none">
<path d="M0 10690 l0 -10690 34025 0 34025 0 0 10690 0 10690 -30102 0 -30102
0 90 -92 c164 -170 256 -294 353 -478 76 -146 123 -269 168 -440 44 -170 45
-229 5 -425 -43 -206 -97 -372 -209 -630 -135 -312 -288 -697 -317 -799 -44
-151 -59 -289 -53 -491 6 -220 21 -293 122 -609 175 -551 308 -1009 339 -1174
84 -440 -4 -865 -248 -1197 -116 -159 -298 -335 -396 -384 -51 -26 -157 -58
-164 -50 -2 2 21 81 51 174 29 94 75 244 100 335 l47 165 4 210 c4 233 -6 368
-44 555 -47 234 -115 437 -198 590 -155 284 -280 628 -340 937 -76 387 -75
584 0 953 44 215 88 340 206 590 127 269 260 572 350 793 l62 152 0 220 c1
215 0 223 -31 350 -52 209 -66 326 -66 548 l0 197 -3839 0 -3838 0 0 -10690z
m5485 8075 c157 -101 271 -221 340 -360 102 -205 109 -387 29 -724 -60 -253
-84 -340 -155 -556 -73 -224 -84 -269 -99 -409 -9 -88 -8 -95 65 -460 40 -204
101 -490 135 -636 34 -146 64 -281 66 -300 11 -71 -100 -319 -214 -479 -75
-105 -207 -244 -295 -311 l-59 -44 -19 25 c-11 13 -29 55 -41 93 -20 65 -20
77 -9 190 19 201 24 404 13 541 -10 118 -16 145 -67 293 -65 191 -140 370
-254 610 -112 234 -134 321 -134 512 0 207 21 280 162 565 217 436 310 770
341 1217 11 159 17 190 55 254 l26 44 31 -16 c16 -9 54 -31 83 -49z m4879 -9
c234 -105 393 -328 437 -612 11 -75 10 -89 -20 -244 -40 -204 -124 -532 -190
-745 -69 -222 -85 -342 -85 -630 l0 -230 37 -130 c79 -282 116 -535 124 -842
7 -248 -2 -301 -71 -448 -51 -107 -104 -176 -190 -247 -61 -50 -175 -118 -223
-133 -23 -6 -23 -6 -23 112 0 65 -5 186 -10 268 -18 273 -37 384 -105 620 -58
201 -98 320 -215 645 -65 178 -90 307 -97 500 -10 276 21 435 127 665 88 191
182 424 256 635 l59 165 -1 195 c0 162 -4 212 -22 297 -26 119 -27 152 -8 198
l15 34 73 -23 c40 -13 99 -35 132 -50z m40512 -566 c635 -50 1235 -215 1789
-493 311 -155 640 -459 851 -787 141 -219 180 -319 210 -540 17 -127 18 -352
3 -471 l-11 -86 -92 -7 c-279 -19 -548 -27 -941 -27 -498 0 -495 -1 -660 84
-70 36 -106 67 -295 252 -118 116 -282 264 -365 331 l-150 120 -110 27 c-321
78 -595 93 -920 51 -377 -50 -734 -320 -924 -700 -78 -156 -162 -439 -198
-669 -24 -152 -24 -478 0 -630 39 -251 103 -448 227 -700 98 -201 135 -257
245 -373 228 -241 456 -375 738 -433 345 -70 817 34 1137 251 64 43 347 331
490 499 87 101 102 114 175 150 119 59 196 81 340 97 367 43 1051 26 1281 -32
86 -22 151 -73 192 -154 42 -84 51 -138 36 -225 -90 -518 -362 -973 -771
-1287 -428 -329 -990 -582 -1536 -692 -331 -67 -388 -71 -1017 -71 -585 0
-634 3 -895 46 -562 94 -1129 332 -1607 675 -143 103 -351 310 -499 496 -380
480 -595 1030 -650 1658 -17 193 -6 632 20 825 133 985 599 1713 1424 2226
238 149 435 244 682 329 604 208 1257 303 1801 260z m-14666 -120 c1324 -23
1814 -46 2235 -106 254 -37 273 -49 324 -208 51 -158 65 -254 65 -436 1 -136
-3 -183 -22 -269 -26 -113 -71 -250 -108 -322 -26 -52 3 -41 -273 -98 -420
-87 -493 -91 -3121 -161 -217 -6 -433 -13 -479 -16 l-84 -6 5 -260 6 -260 42
-43 c42 -43 44 -44 179 -69 215 -42 346 -54 723 -71 746 -32 2006 -99 2014
-107 12 -13 28 -520 28 -903 l1 -470 -190 -7 c-590 -22 -1474 -50 -1990 -63
-324 -8 -654 -18 -731 -21 l-141 -6 -6 -63 c-10 -105 11 -527 28 -576 42 -117
103 -181 190 -197 216 -40 348 -47 1345 -72 980 -24 2170 -66 2264 -80 97 -15
157 -44 214 -104 89 -94 111 -202 112 -546 0 -328 -21 -424 -112 -505 -57 -52
-103 -70 -258 -99 -309 -59 -232 -57 -2070 -62 -1694 -6 -3064 5 -3225 26
-164 21 -331 52 -370 70 -22 9 -54 33 -72 51 -29 32 -32 42 -48 163 -37 294
-45 482 -56 1301 -15 1168 5 2750 42 3350 14 230 44 587 71 834 21 197 23 206
50 237 16 18 37 35 46 38 22 7 431 51 647 71 340 30 754 55 1125 68 204 8
1098 6 1600 -3z m-8175 -30 c479 -6 926 -15 995 -20 605 -49 1134 -226 1650
-549 258 -161 501 -461 625 -770 81 -204 119 -392 130 -656 12 -264 -24 -464
-119 -660 -98 -202 -219 -346 -400 -474 -63 -44 -160 -117 -215 -162 -101 -80
-321 -285 -321 -298 0 -3 46 -60 101 -126 533 -638 982 -1377 1329 -2189 60
-140 63 -150 49 -174 -12 -22 -30 -30 -103 -49 -145 -36 -242 -44 -621 -50
-434 -7 -995 18 -1110 48 -100 27 -282 142 -354 225 -66 74 -370 607 -586
1026 -140 271 -186 341 -299 453 -135 135 -305 225 -501 266 -121 26 -405 38
-891 39 l-392 0 -6 -152 c-3 -84 -13 -398 -21 -698 -9 -300 -20 -646 -25 -770
-5 -124 -10 -260 -10 -302 l0 -78 -969 0 -969 0 -6 553 c-30 2695 -31 3842 -6
4497 27 701 27 702 50 770 11 36 41 95 65 131 l45 65 112 27 c139 32 253 53
384 71 126 17 1155 20 2389 6z m15380 -1 c198 -5 424 -13 503 -17 l144 -7 170
-355 c719 -1503 1390 -2978 2036 -4480 252 -588 378 -887 448 -1065 72 -184
72 -185 -24 -204 -279 -53 -532 -59 -1332 -28 -557 21 -629 26 -663 42 -32 16
-46 35 -100 139 -92 178 -191 386 -283 601 l-82 190 -223 8 c-512 18 -1829
-15 -2428 -62 l-83 -6 -98 -210 c-53 -115 -151 -322 -217 -460 l-120 -250
-189 -6 c-278 -9 -1064 -9 -1329 0 -207 7 -235 10 -283 31 -55 24 -132 99
-132 130 0 19 85 237 313 800 627 1554 1360 3186 2068 4611 l198 397 63 45
c114 81 242 136 366 157 71 12 868 11 1277 -1z m13415 1 c712 -6 1567 -14
1900 -20 1305 -21 1837 -31 1878 -36 l42 -5 0 -699 0 -698 -72 -6 c-40 -3
-235 -12 -433 -21 -490 -22 -1446 -83 -1551 -100 l-31 -5 -7 -318 c-31 -1489
-66 -2491 -130 -3777 l-21 -430 -45 -7 c-226 -36 -864 -57 -1230 -39 -429 21
-460 27 -549 109 l-40 37 -21 183 c-34 305 -40 569 -55 2405 -8 972 -17 1771
-20 1776 -9 15 -161 71 -262 97 -165 42 -536 66 -1283 85 -250 7 -458 14 -461
18 -17 15 -41 445 -46 798 -6 378 -5 382 16 416 29 48 95 106 145 127 54 24
261 76 395 99 132 23 184 24 1881 11z m-46250 -4079 c838 -40 1688 -104 2140
-161 546 -69 1055 -217 1538 -451 277 -133 375 -193 473 -289 101 -100 151
-171 220 -315 85 -176 155 -221 444 -285 274 -60 744 -179 1042 -264 282 -80
439 -143 668 -268 336 -183 589 -371 850 -633 258 -257 453 -516 635 -845 97
-175 198 -568 230 -895 24 -246 7 -581 -40 -819 -93 -459 -328 -955 -630
-1325 -761 -932 -1762 -1431 -2945 -1467 -177 -6 -194 -5 -246 15 -71 27 -134
81 -150 128 -17 53 -5 131 32 204 45 90 195 237 313 306 149 88 224 112 420
134 722 81 1262 325 1712 774 163 163 240 256 369 450 141 210 230 380 254
485 108 459 98 908 -30 1295 -22 66 -71 183 -109 260 -257 524 -695 928 -1370
1264 -251 125 -544 236 -700 265 -83 16 -271 21 -329 10 -37 -8 -61 -47 -81
-133 -24 -102 10 -251 69 -305 10 -10 90 -35 177 -56 434 -106 849 -295 1189
-540 271 -196 518 -589 589 -941 65 -321 24 -706 -104 -976 -189 -397 -443
-682 -810 -908 -231 -142 -504 -235 -1074 -365 -273 -62 -337 -91 -446 -200
-71 -71 -78 -82 -134 -215 -379 -897 -879 -1648 -1546 -2316 -197 -198 -359
-328 -625 -502 -644 -420 -1258 -650 -2194 -822 -1627 -298 -3223 -182 -4801
350 -284 96 -490 193 -825 393 -937 558 -1664 1367 -2115 2352 -172 376 -264
645 -324 947 -123 618 -214 1285 -266 1941 -59 747 -65 1675 -14 2423 27 414
97 687 256 1012 90 182 136 239 298 361 252 190 478 279 1085 427 578 140 996
210 1700 283 1026 108 2065 180 3220 226 286 11 1695 4 1985 -9z m17785 -7511
c515 -12 971 -35 1115 -56 365 -55 749 -203 1060 -409 226 -150 520 -420 690
-635 270 -340 363 -554 364 -840 1 -207 -5 -239 -65 -299 -74 -75 -151 -108
-289 -125 -233 -29 -467 -39 -793 -33 -527 8 -536 13 -1027 492 -152 149 -212
201 -275 237 -166 97 -342 166 -515 204 -67 15 -127 19 -290 19 -178 0 -219
-3 -308 -23 -248 -56 -458 -150 -602 -269 -223 -186 -366 -387 -454 -642 -102
-293 -141 -795 -87 -1115 47 -278 125 -507 255 -745 41 -76 68 -110 148 -186
221 -212 501 -355 796 -406 137 -23 379 -25 522 -5 287 41 734 310 981 589 44
51 95 105 112 120 74 65 225 150 333 188 110 37 814 73 1344 67 l305 -3 6 -90
c4 -49 3 -152 -2 -228 -15 -224 -62 -409 -155 -607 -109 -228 -262 -426 -499
-643 -595 -544 -1253 -822 -2050 -866 -183 -10 -894 2 -1060 19 -398 38 -754
105 -1107 206 -287 82 -409 128 -526 200 -586 361 -1006 819 -1253 1364 -217
480 -324 1090 -275 1570 114 1108 546 1898 1316 2406 352 232 786 403 1310
515 97 21 250 33 465 37 44 1 274 -3 510 -8z m7850 -10 c293 -12 675 -35 900
-55 128 -11 172 -20 298 -59 636 -199 1114 -470 1482 -840 215 -216 363 -423
495 -691 122 -247 193 -459 250 -745 54 -270 65 -399 65 -790 0 -345 -1 -359
-28 -515 -126 -711 -384 -1242 -812 -1671 -285 -286 -615 -502 -1025 -670
-392 -160 -513 -179 -1244 -196 -613 -13 -1499 1 -1696 27 -475 64 -863 234
-1262 552 -649 517 -1023 1135 -1153 1907 -38 228 -48 395 -42 708 10 499 80
856 243 1247 199 474 544 893 1011 1227 224 160 476 298 648 354 303 98 640
170 940 199 61 6 124 13 140 15 69 8 549 5 790 -4z m5880 -100 c1399 -19 2417
-30 3458 -36 l1037 -7 0 -704 c0 -386 -3 -703 -7 -703 -5 0 -532 -13 -1173
-30 -641 -16 -1500 -37 -1910 -46 -410 -9 -747 -18 -749 -20 -5 -4 57 -1115
62 -1120 1 -1 364 -10 807 -18 443 -9 1104 -23 1470 -31 366 -8 690 -15 721
-15 l56 0 5 -87 c9 -150 -10 -729 -27 -827 -18 -103 -57 -202 -114 -290 l-41
-63 -93 -21 c-414 -95 -607 -106 -2028 -118 l-817 -7 -6 -171 c-3 -94 -8 -281
-11 -416 -6 -226 -26 -778 -41 -1132 l-7 -147 -41 -5 c-142 -18 -1179 -50
-1446 -44 -217 4 -258 16 -335 99 -59 63 -69 89 -89 229 -38 272 -38 267 -72
1870 -18 860 -19 757 22 2630 8 366 19 703 24 750 15 122 47 308 71 412 l21
90 252 -6 c138 -4 589 -11 1001 -16z m11336 16 c2 -2 -4 -168 -13 -368 -9
-199 -23 -526 -31 -725 -7 -200 -16 -365 -18 -368 -16 -16 -2366 -100 -3449
-123 l-325 -7 -3 -547 -2 -548 62 0 c35 0 268 -4 518 -10 250 -5 909 -19 1465
-31 741 -15 1012 -24 1017 -32 27 -42 -18 -979 -52 -1107 -21 -78 -104 -172
-177 -201 -35 -13 -574 -45 -1178 -70 -137 -5 -579 -13 -981 -16 l-732 -6 -6
-106 c-11 -190 -56 -1535 -56 -1683 l0 -78 -910 0 -910 0 0 353 c0 193 -7
1117 -15 2052 -17 1876 -10 2668 31 3358 7 123 2 116 123 156 94 31 178 37
1396 95 200 10 788 14 2256 15 1092 0 1988 -1 1990 -3z m5209 -47 c965 -6
1758 -14 1762 -18 13 -12 31 -656 24 -875 -7 -209 -8 -222 -33 -273 -33 -68
-126 -157 -197 -188 -69 -31 -215 -70 -336 -91 -136 -23 -795 -32 -2323 -33
l-1259 -1 6 -47 c11 -83 34 -352 47 -528 6 -93 13 -172 15 -174 10 -11 1588
-81 2718 -120 188 -6 271 -13 276 -21 10 -16 28 -180 41 -370 12 -171 5 -451
-15 -627 -21 -180 -56 -216 -241 -252 -342 -66 -461 -71 -1737 -78 -610 -3
-1108 -7 -1108 -8 0 -2 7 -65 15 -141 14 -142 45 -528 45 -575 l0 -27 183 -6
c100 -3 412 -10 692 -16 866 -18 1961 -53 2235 -71 196 -12 466 -47 661 -85
141 -28 142 -28 189 -74 56 -54 84 -106 106 -193 13 -50 17 -124 18 -387 0
-179 -3 -409 -8 -512 l-8 -188 -2983 0 -2983 0 -6 58 c-14 140 -28 2478 -24
4032 l4 1696 23 46 c36 75 54 82 346 127 l260 40 920 -5 c506 -2 1710 -9 2675
-15z m7030 0 c965 -6 1758 -14 1762 -18 13 -12 31 -588 25 -839 -5 -247 -5
-253 -31 -306 -32 -65 -108 -143 -174 -179 -111 -60 -394 -115 -632 -122 -85
-3 -420 -10 -745 -15 -933 -17 -1935 -46 -2070 -61 -186 -21 -398 -78 -418
-113 -7 -13 -11 -71 -11 -151 0 -142 14 -210 63 -320 26 -57 31 -62 92 -90 74
-33 113 -37 599 -55 540 -19 1131 -30 1728 -30 l582 0 0 -207 c0 -115 -5 -351
-10 -525 -12 -353 -20 -402 -83 -490 -66 -94 -84 -102 -279 -126 -298 -38
-453 -43 -1621 -49 l-1138 -6 6 -41 c11 -81 34 -344 46 -522 l12 -182 191 -6
c105 -3 414 -10 686 -16 824 -18 1985 -54 2230 -70 192 -13 427 -42 602 -76
73 -13 148 -28 166 -31 49 -9 126 -88 164 -169 31 -65 32 -72 40 -268 5 -118
4 -333 -2 -521 -5 -176 -10 -332 -10 -347 l0 -28 -2984 0 -2984 0 -6 132 c-21
459 -33 4177 -17 5258 5 389 8 428 24 455 38 63 62 71 347 114 l265 40 915 -5
c503 -2 1705 -9 2670 -15z m-51765 -2459 c867 -30 1781 -111 2525 -226 463
-71 726 -182 813 -343 100 -182 -16 -405 -368 -709 -94 -81 -129 -104 -240
-157 -437 -209 -952 -369 -1455 -450 -91 -15 -318 -54 -505 -86 -2095 -362
-4001 -556 -6220 -631 -465 -15 -2034 -15 -2495 0 -700 24 -1428 62 -1890 98
-660 51 -1340 163 -2005 330 -655 165 -1212 482 -1657 942 -83 86 -114 127
-144 188 -36 71 -39 85 -39 158 0 98 21 149 98 232 42 46 72 66 171 114 219
106 357 146 733 214 680 123 1459 196 2083 196 111 0 129 -3 165 -23 35 -20
41 -29 53 -77 16 -71 9 -165 -19 -230 -27 -63 -124 -155 -177 -169 -46 -12
-657 -71 -1147 -111 -424 -34 -489 -42 -617 -75 -129 -33 -145 -40 -168 -77
-22 -37 -25 -70 -9 -115 9 -28 25 -36 187 -101 774 -308 1567 -492 2437 -567
294 -26 1837 -38 3935 -31 1809 6 2541 15 3040 36 1102 47 2082 139 3175 296
498 71 940 156 1407 268 298 72 470 145 483 206 9 39 -2 84 -24 104 -26 24
-171 74 -291 102 -192 44 -963 90 -1995 119 -466 13 -495 14 -585 38 -163 43
-192 57 -219 106 -35 64 -40 161 -11 228 12 28 29 58 38 66 44 37 314 118 457
136 99 12 142 12 480 1z"/>
<path d="M27680 16655 c-52 -8 -172 -19 -266 -25 -95 -6 -194 -17 -222 -25
-62 -19 -134 -81 -157 -137 -22 -51 -33 -320 -34 -819 l-1 -316 158 -7 c335
-14 1298 27 1482 64 449 90 671 250 712 513 9 60 8 90 -5 169 -26 154 -47 197
-132 275 -96 89 -211 158 -332 199 -232 78 -959 144 -1203 109z"/>
<path d="M42770 15818 c-68 -120 -234 -464 -294 -609 -126 -307 -267 -739
-249 -769 5 -8 34 -32 64 -53 63 -43 131 -58 359 -78 273 -23 707 6 793 54 45
25 45 21 12 214 -67 387 -184 741 -364 1100 -76 154 -81 160 -129 186 -36 19
-64 27 -101 27 l-50 0 -41 -72z"/>
<path d="M8225 13193 c-33 -1 -202 -10 -375 -18 -1114 -55 -2427 -180 -3525
-335 -196 -28 -211 -32 -237 -57 l-27 -28 20 -33 c38 -58 94 -82 243 -103 528
-73 1240 -136 1826 -161 394 -17 1964 -17 2360 0 1399 59 2456 156 3690 338
663 97 730 111 730 149 0 15 -89 55 -182 84 -120 36 -616 97 -983 121 -184 11
-643 26 -1260 40 -381 9 -2124 11 -2280 3z"/>
<path d="M13690 12493 c-776 -130 -2507 -362 -3305 -442 -1461 -148 -2932
-191 -4450 -131 -283 12 -320 15 -935 90 -455 55 -1160 135 -1535 175 -132 14
-256 28 -277 31 l-36 5 -33 -68 c-30 -64 -33 -77 -41 -228 -12 -207 -3 -2617
11 -3055 25 -776 37 -935 87 -1210 37 -202 66 -303 150 -514 395 -997 1019
-1800 1893 -2436 243 -177 447 -294 782 -451 1195 -560 2427 -742 3784 -559
77 10 201 26 275 35 320 39 620 120 930 251 93 39 109 49 133 86 25 37 28 51
25 100 -3 41 -11 65 -30 91 l-27 34 22 32 c12 17 45 42 72 55 70 34 598 253
920 381 149 60 293 124 322 142 51 34 133 138 133 169 0 8 -15 30 -32 48 l-33
34 -340 41 c-452 55 -411 47 -442 87 l-26 35 29 30 c43 45 167 124 249 158 39
16 199 62 355 101 512 128 805 215 896 266 83 46 155 112 201 187 34 53 83
155 83 171 0 2 -26 14 -57 26 -56 21 -67 22 -318 16 -353 -8 -426 -7 -525 10
-266 46 -370 114 -370 242 0 49 1 51 48 80 76 47 154 69 337 97 518 79 1110
210 1195 265 116 74 178 177 187 309 l6 78 -534 6 c-461 5 -892 21 -1089 42
-73 8 -147 30 -190 56 l-35 22 40 34 c82 71 181 108 515 192 339 86 754 185
1048 251 199 44 232 59 306 136 82 85 112 183 155 499 33 238 40 360 51 850 6
253 15 588 20 745 5 157 12 375 16 485 10 296 -17 744 -72 1215 -28 242 -41
299 -89 385 -91 163 -270 249 -455 218z"/>
<path d="M15246 10220 c-61 -93 -68 -126 -77 -380 -20 -577 -51 -959 -115
-1447 -24 -183 -25 -195 -10 -247 16 -54 16 -55 74 -72 84 -25 214 -29 313
-10 426 84 708 325 866 741 32 85 34 98 40 255 11 312 -40 528 -172 725 -148
223 -393 373 -735 451 -145 33 -152 32 -184 -16z"/>
<path d="M35780 5028 c-335 -68 -665 -253 -872 -489 -99 -113 -229 -406 -294
-663 -84 -331 -85 -770 -4 -1164 102 -493 401 -832 895 -1017 213 -79 661 -95
970 -34 650 129 1032 580 1150 1359 72 474 -33 1004 -270 1366 -74 111 -252
292 -359 364 -268 179 -595 272 -1031 293 -65 4 -117 -1 -185 -15z"/>
</g>
</svg>
